<?xml version="1.0" standalone="no"?>
<!DOCTYPE svg PUBLIC "-//W3C//DTD SVG 1.1//EN" "http://www.w3.org/Graphics/SVG/1.1/DTD/svg11.dtd" >
<svg xmlns="http://www.w3.org/2000/svg">
<metadata>
This is a custom SVG webfont generated by Font Squirrel.
Copyright   : Copyright c 2000 Red Rooster Typefoundry All rights reserved Data Copyright c 1999 dtpTypes Limited
</metadata>
<defs>
<font id="SinclairScriptRRBoldRegular" horiz-adv-x="410" >
<font-face units-per-em="2048" ascent="1638" descent="-410" />
<missing-glyph horiz-adv-x="500" />
<glyph unicode=" " />
<glyph unicode="!" horiz-adv-x="635" d="M164 104q0 68 70 116t165 48q71 0 113.5 -33.5t42.5 -89.5q0 -75 -64.5 -120t-168.5 -45q-71 0 -114.5 34t-43.5 90zM195 1243q0 84 67 107q56 18 215 20q40 1 105 4q-32 -53 -62 -251t-39 -414l-6 -152q-5 -115 -67 -154q-11 -6 -70 -34l-74 -37q-3 -1 -14 -4q2 4 4 10 q2 10 2 43v18l-2 64q-2 55 -8 125q-13 134 -17 196l-14 224q-4 62 -12 134.5t-8 100.5z" />
<glyph unicode="&#x22;" horiz-adv-x="561" d="M53 1313q0 47 64 47h49q56 0 72 -11q12 -8 12 -30q0 -16 -33 -133q-6 -20 -22 -86q-10 -39 -54 -39q-16 0 -37 4t-26 22t-10 101q-3 43 -13 98q0 6 -1 14.5t-1 12.5zM309 1313q0 47 64 47h43q71 0 83 -15q7 -9 7 -28q0 -14 -4 -29l-29 -102l-20 -86q-10 -39 -56 -39 q-16 0 -37 4t-26.5 22t-9.5 101q-3 36 -11 98q-4 32 -4 27z" />
<glyph unicode="#" horiz-adv-x="1137" d="M55 410l29 180h176l37 223h-176l29 180h176l61 373h186l-59 -373h205l61 373h189l-62 -373h176l-30 -180h-174l-37 -223h176l-31 -180h-176l-66 -410h-188l68 410h-207l-68 -410h-186l65 410h-174zM446 590h207l37 223h-207z" />
<glyph unicode="$" horiz-adv-x="1221" d="M27 264l10 8q17 14 59 47q88 72 146 72q35 0 63 -22q6 -7 49 -43q110 -95 217 -113v348l-4 4l-192 121q-240 150 -240 363q0 148 124.5 250t305.5 102h6v37q0 92 52 135l53 45l8 8v-10l-2 -62v-129l-2 -26q141 -9 246.5 -83t105.5 -163q0 -49 -33 -96q-33 -40 -106 -82 q-77 112 -213 164v-260l4 -2q101 -51 258 -166q170 -125 170 -316q0 -170 -119 -285.5t-313 -132.5v-225q0 -69 -96 -129l-17 -10q0 2 2 18v146q0 24 1 55t1 37v104q-74 3 -147 19q-104 23 -189 83q-67 48 -198 179zM477 1073q0 -45 53 -92l35 -31l6 -4v211h-12 q-33 0 -57.5 -24.5t-24.5 -59.5zM680 219q100 34 100 129q0 97 -100 146v-275z" />
<glyph unicode="%" horiz-adv-x="1675" d="M109 1010q0 176 96 282.5t256 106.5q152 0 239.5 -100t87.5 -271q0 -179 -90 -278t-254 -99q-153 0 -244 97t-91 262zM268 6q13 12 13 14q31 42 65 95q13 18 60 86l765 1106q13 16 33 43q27 32 72 32q23 0 65 -10q52 -12 56 -12q11 -2 12 -2l-6 -10l-55 -78l-58 -88 l-702 -1030l-45 -68q-14 -21 -41 -53q-41 -49 -90 -49q-36 0 -66 8q-51 14 -78 16zM346 1026q0 -103 23 -152q27 -59 80 -59q74 0 94 111q6 30 6 96q0 98 -23 145q-29 62 -77 62q-103 0 -103 -203zM887 332q0 177 95.5 283t256.5 106q150 0 238 -100t88 -271 q0 -180 -90 -279.5t-254 -99.5q-152 0 -243 98t-91 263zM1122 348q0 -103 23 -151q28 -62 80 -62q51 0 80 62q22 48 22 147q0 98 -22 145q-30 62 -80 62q-103 0 -103 -203z" />
<glyph unicode="&#x26;" horiz-adv-x="1614" d="M123 340q0 158 115 262q107 98 247 137q-30 42 -61 103q-57 113 -57 198q0 151 121 248.5t307 97.5q170 0 278.5 -87t108.5 -224q0 -126 -101 -223q-94 -91 -194 -141l8 -11l88 -120l111 -129q49 59 49 120q0 38 -31 54q57 32 127 32q69 0 110.5 -34t41.5 -93 q0 -46 -25 -116q-27 -77 -100 -140q29 -32 86 -75q54 -41 106 -41q47 0 94 45q7 -21 7 -45q0 -80 -62 -129t-162 -49q-157 0 -282 118l-6 -4q-41 -27 -54 -35q-150 -92 -377 -92q-224 0 -358.5 101.5t-134.5 271.5zM508 360q0 -67 49 -109t127 -42q96 0 162 49l-6 6 l-125 156l-80 90l-4 8q-123 -63 -123 -158zM707 1055q0 -76 61 -152q121 71 121 170q0 42 -24.5 69t-61.5 27q-42 0 -69 -32.5t-27 -81.5z" />
<glyph unicode="'" horiz-adv-x="303" d="M53 1313q0 47 64 47h49q56 0 72 -11q12 -8 12 -30q0 -16 -33 -133q-6 -20 -22 -86q-10 -39 -54 -39q-16 0 -37 4t-26 22t-10 101q-3 43 -13 98q0 6 -1 14.5t-1 12.5z" />
<glyph unicode="(" horiz-adv-x="813" d="M123 657q0 340 188 617q89 131 218.5 238.5t222.5 127.5v-10q2 -16 2 -20q4 -19 4 -56q0 -72 -66 -147q-108 -124 -172 -262q-106 -230 -106 -461q0 -208 79 -409.5t222 -356.5q28 -31 28 -65q0 -23 -4 -35l-4 -29q-4 -14 -4 -41q0 -24 4 -43q-56 5 -89.5 22.5 t-113.5 84.5q-409 344 -409 845z" />
<glyph unicode=")" horiz-adv-x="813" d="M55 1554q0 41 2 56q2 12 2 20v10q86 -19 201 -110q206 -164 318 -391t112 -482q0 -289 -149 -540q-95 -159 -234 -282.5t-231 -129.5q6 19 6 43q0 22 -4 41l-6 29q-2 9 -2 35q0 34 28 65q142 154 220.5 355.5t78.5 410.5q0 234 -104 461q-63 137 -172 262q-66 75 -66 147 z" />
<glyph unicode="*" horiz-adv-x="643" d="M82 1069l18 137l166 -51l-108 137l112 64l72 -166l78 160l108 -76l-114 -127l176 6l-19 -137l-172 49l86 -150l-120 -51l-41 156l-88 -139l-109 80l129 116z" />
<glyph unicode="+" horiz-adv-x="1106" d="M109 299q12 110 38 174q25 59 72 74q26 8 92 8h123v180q0 78 -22 146l-2 6q98 -9 172 -39q58 -24 73 -70q11 -30 11 -92v-131h188q16 0 72 8q38 6 71 25q-10 -31 -18 -96q-12 -100 -47 -138q-27 -28 -148 -28h-118v-185q0 -37 6 -69q7 -37 24 -72q-26 9 -94 18 q-104 15 -136 44.5t-32 150.5v113h-172q-100 0 -145 -23z" />
<glyph unicode="," horiz-adv-x="512" d="M-55 -332l8 8q18 31 53 115l55 133l66 174q20 53 49 82q35 35 137 35h66q49 0 78 10l-8 -18l-82 -174q-87 -184 -151 -273.5t-155 -89.5h-12q-22 0 -48 1t-30 1q-10 0 -26 -4z" />
<glyph unicode="-" horiz-adv-x="731" d="M55 436q9 74 39 131q23 43 69 55q26 7 93 7h240q68 0 110 6q22 3 72 18q-10 -22 -19 -71q-12 -76 -47 -103q-28 -22 -147 -22h-258q-57 0 -107 -8q-20 -4 -45 -13z" />
<glyph unicode="." horiz-adv-x="500" d="M55 111q0 66 70 113.5t168 47.5q153 0 153 -122q0 -74 -64.5 -120t-168.5 -46q-72 0 -115 34.5t-43 92.5z" />
<glyph unicode="/" horiz-adv-x="1159" d="M55 -250q3 9 6 12q13 25 29 60l70 147l669 1391q55 113 136 113h139l-6 -15l-29 -57l-25 -47l-14 -33l-22 -47l-643 -1317q-9 -18 -46 -107q-20 -50 -40 -67q-23 -19 -72 -21q-105 -2 -152 -12z" />
<glyph unicode="0" horiz-adv-x="1348" d="M82 678q0 212 78 393q40 95 114 152q53 40 117 43q-4 12 -4 32q0 115 275 115q253 0 408 -196.5t155 -518.5q0 -286 -144 -493q-151 -219 -422 -219q-304 0 -456 241q-121 192 -121 451zM391 686q0 -204 74 -337.5t186 -133.5q109 0 178.5 132t69.5 341q0 223 -71 354.5 t-191 131.5q-25 0 -49 -9l-21 -10q-6 -2 -16 -2q-8 0 -14 4q12 -17 12 -41q0 -26 -31 -49q-61 -45 -88 -127q-39 -119 -39 -254z" />
<glyph unicode="1" horiz-adv-x="664" d="M0 932q0 42 14 106q13 56 13 82q0 12 -7 27q69 3 267 158q130 102 172 102q82 0 82 -94q0 -30 -25 -176q-11 -69 -29 -176q-22 -160 -22 -338q0 8 2 -78q2 -69 20 -234q7 -40 17 -108l8 -58q4 -28 4 -32q0 -36 -55 -70q-143 -88 -217 -88q-48 0 -68 43q-23 52 -26 195 q-3 96 -3 299q0 170 7 247q10 129 10 131v13q-48 -29 -98 -29q-28 0 -47 22.5t-19 55.5z" />
<glyph unicode="2" horiz-adv-x="1212" d="M27 0v10q0 39 14 84q18 59 57 119q60 92 242 242q170 140 248 221q143 150 143 282q0 91 -55.5 149t-143.5 58q-118 0 -196.5 -78t-81.5 -198q-135 63 -135 201q0 144 117 222.5t333 78.5q254 0 380 -115.5t126 -296.5q0 -188 -147 -340q-85 -88 -336 -285 q-106 -82 -150 -145l19 2l51 2q69 3 131 -2q105 -8 156 -8q236 0 278 98q27 -82 27 -139q0 -207 -316 -207q-89 0 -292 29l-146 20q-131 19 -194 19q-64 0 -129 -23z" />
<glyph unicode="3" horiz-adv-x="1124" d="M27 319q0 67 45 134l10 -9l53 -59q147 -164 340 -164q96 0 155.5 57.5t59.5 149.5q0 211 -360 211q-58 0 -92 -4v8q-9 60 -9 92q0 36 13 51l45 43l100 101l70 71q32 34 69 78l54 66h-13l-143 -19q-80 -10 -150 -10q-204 0 -204 115q0 36 16 78q10 21 23 59q0 1 2 6 q132 -24 376 -24q108 0 158 4l174 14q73 6 92 9t47 14q-8 -41 -8 -64q0 -9 2 -27.5t2 -27.5q0 -50 -67 -119q-20 -19 -58 -59l-77 -93q-18 -20 -86 -96q-38 -41 -76 -86h20q169 0 287.5 -116.5t118.5 -282.5q0 -198 -136.5 -322.5t-353.5 -124.5q-221 0 -360 96.5 t-139 249.5z" />
<glyph unicode="4" horiz-adv-x="1167" d="M0 530q-1 39 57 115l93 121q87 115 133 170q15 18 145 170l100 117q95 106 113 147q21 -4 39 -4q56 0 178 39q32 10 55 10q45 0 45 -43q0 -25 -2 -39q-1 -10 -10 -84q-8 -63 -24 -198q-21 -198 -21 -422v-15q23 3 47 15q13 6 41 18q6 4 23 4q32 0 32 -55q0 -143 -2 -155 q-14 -91 -90 -91q-28 0 -61 8v-14q0 -174 18 -272q4 -22 4 -25t1 -10t1 -10q0 -26 -24 -35q-18 -7 -162 -21q-37 -3 -74 -10q-45 -4 -55 -4q-49 0 -49 41q0 19 10 51q20 63 31 152q3 30 8 125q2 42 2 43v12h-8q-116 0 -270 -12q-45 -4 -138 -9l-98 -2l-27 -2q-40 -3 -51 16 q-7 11 -8 54zM301 598l14 2q43 0 142 4l35 2q73 2 104 2h6v10l4 181v205l-6 -7l-78 -96l-147 -194q-40 -53 -74 -109z" />
<glyph unicode="5" horiz-adv-x="1079" d="M14 219q0 71 27 117q53 -63 154.5 -107.5t189.5 -44.5q123 0 198.5 85.5t75.5 224.5q0 73 -43.5 122.5t-109.5 49.5q-88 0 -234 -72q-45 -23 -63 -23q-21 0 -39 19q-78 80 -78 129q0 16 4 24l21 54q6 20 18 75q9 47 41 185q23 97 37 166q6 37 14 84q4 20 19 59 q14 27 53 27q22 0 45 -4q49 -9 174 -17q167 -10 258 -10q198 0 260 39q2 -8 2 -21q0 -90 -32 -149q-53 -96 -248 -96q-175 0 -264 14q-7 -26 -31 -129q-14 -61 -39 -174q83 43 186 43q174 0 274.5 -111.5t100.5 -304.5q0 -235 -144.5 -372.5t-391.5 -137.5q-182 0 -328 68 q-107 49 -107 188z" />
<glyph unicode="6" horiz-adv-x="1169" d="M82 674q0 327 157.5 537t403.5 210q253 0 340 -202q-70 -70 -170 -70q-41 0 -127 41q-43 20 -70 20q-75 0 -126.5 -108.5t-51.5 -265.5q97 108 246 108q177 0 283 -124.5t106 -330.5q0 -225 -130.5 -374.5t-328.5 -149.5q-239 0 -385.5 194.5t-146.5 514.5zM438 565 q-3 -175 45.5 -280t128.5 -105q65 0 105.5 74t40.5 190q0 103 -33 169.5t-82 66.5q-31 0 -59 -33q-32 -37 -60 -37q-51 0 -86 80l2 -14z" />
<glyph unicode="7" horiz-adv-x="1001" d="M14 1266q0 32 27 110q9 26 12 54v8q96 -76 527 -76q279 0 395 35q-17 -36 -17 -94q0 -11 9 -60q0 -7 1 -18t1 -15q0 -35 -47 -71q-203 -158 -336 -402t-133 -454q0 -94 28 -158q-63 -28 -198 -154q-49 -45 -78 -45q-70 0 -70 156q0 138 46.5 310t121.5 310 q73 135 186 270t193 183h-14l-193 -16l-82 -11q-82 -10 -143 -10q-107 0 -171.5 40.5t-64.5 107.5z" />
<glyph unicode="8" horiz-adv-x="1051" d="M27 336q0 126 78.5 239.5t209.5 176.5l-12 10q-83 69 -119 133q-59 107 -59 217q0 137 107.5 228.5t269.5 91.5q106 0 171.5 -47.5t65.5 -122.5q0 -98 -100 -144q-7 105 -90 105q-35 0 -59.5 -27t-24.5 -66q0 -92 102 -194l11 6q223 168 223 322q0 14 -2 28 q125 -56 125 -211q0 -166 -203 -327q37 -28 76 -70q145 -157 145 -344q0 -168 -127 -272.5t-332 -104.5q-203 0 -329.5 103.5t-126.5 269.5zM293 352q0 -77 47.5 -128.5t118.5 -51.5q67 0 113 45t46 111q0 123 -174 266q-20 -13 -55 -47q-96 -94 -96 -195z" />
<glyph unicode="9" horiz-adv-x="1184" d="M82 903q0 227 130 375.5t329 148.5q239 0 385.5 -194.5t146.5 -513.5q0 -327 -157.5 -537.5t-403.5 -210.5q-251 0 -338 203q67 70 168 70q51 0 129 -39q41 -21 68 -21q75 0 126.5 108t53.5 265q-100 -108 -248 -108q-176 0 -282.5 124t-106.5 330zM397 948 q0 -103 33 -169t84 -66q29 0 57 32q32 37 60 37q52 0 86 -80v125q0 177 -47.5 282t-126.5 105q-63 0 -104.5 -74.5t-41.5 -191.5z" />
<glyph unicode=":" horiz-adv-x="514" d="M55 111q0 66 69.5 113.5t164.5 47.5q157 0 157 -122q0 -74 -64.5 -120t-168.5 -46q-72 0 -115 34.5t-43 92.5zM55 760q0 66 69.5 115t164.5 49q72 0 114.5 -34t42.5 -91q0 -74 -64 -119t-169 -45q-72 0 -115 34t-43 91z" />
<glyph unicode=";" horiz-adv-x="608" d="M-55 -332l8 8q18 31 53 115l55 133l66 174q20 53 49 82q35 35 137 35h66q49 0 78 10l-8 -18l-82 -174q-87 -184 -151 -273.5t-155 -89.5h-12q-22 0 -48 1t-30 1q-10 0 -26 -4zM135 760q0 66 69.5 115t166.5 49q70 0 112.5 -34t42.5 -91q0 -74 -64.5 -119t-168.5 -45 q-72 0 -115 34t-43 91z" />
<glyph unicode="&#x3c;" d="M88 586l98 96l-98 96l21 21l96 -97l96 97l21 -21l-99 -96l99 -96l-21 -19l-96 97l-96 -97z" />
<glyph unicode="=" horiz-adv-x="1106" d="M109 86q12 108 38 172q26 61 72 74q37 10 92 10h504q78 0 112.5 6.5t69.5 24.5q-10 -32 -18 -94q-13 -100 -47 -138q-27 -28 -148 -28h-522q-91 0 -145 -25zM109 520q11 107 38 172q26 61 72 74q37 10 92 10h543q39 0 73 6.5t70 24.5q-10 -32 -18 -94q-12 -100 -47 -138 q-27 -28 -148 -28h-522q-91 0 -145 -25z" />
<glyph unicode="&#x3e;" d="M88 586l98 96l-98 96l21 21l96 -97l96 97l21 -21l-99 -96l99 -96l-21 -19l-96 97l-96 -97z" />
<glyph unicode="?" horiz-adv-x="1075" d="M205 1137q0 102 113.5 171.5t279.5 69.5q172 0 298 -88t126 -209q0 -87 -82.5 -156t-269.5 -141q-174 -66 -174 -133q0 -27 32.5 -46t79.5 -19q57 0 103 24l-6 -12q-89 -176 -189 -176q-36 0 -108 51l-78 55q-115 82 -115 158q0 72 68 125q48 38 182 102q149 72 201 129 q45 51 45 105q0 63 -76 63q-84 0 -146 -92q-32 -49 -40 -55q-23 -25 -100 -40q-56 -10 -113 -19q-2 0 -9 -3l-2 13q-20 67 -20 123zM297 111q0 66 69.5 113.5t165.5 47.5q156 0 156 -122q0 -74 -64.5 -120t-168.5 -46q-72 0 -115 34.5t-43 92.5z" />
<glyph unicode="@" horiz-adv-x="1855" d="M123 680q0 327 234 542.5t591 215.5q350 0 567.5 -194.5t217.5 -508.5q0 -202 -110 -329t-286 -127q-189 0 -258 161q-96 -147 -256 -147q-117 0 -189.5 83t-72.5 218q0 195 120 334t288 139q69 0 147 -39l4 43h191l-78 -547q0 -58 39.5 -99.5t97.5 -41.5q105 0 169.5 90 t64.5 236q0 272 -177 443t-458 171q-285 0 -470.5 -179t-185.5 -454q0 -273 196 -462t480 -189q192 0 404 115l47 -86q-235 -140 -500 -140q-353 0 -585 214t-232 538zM764 618q0 -87 36 -139.5t97 -52.5q62 0 111 63.5t61 161.5l37 289q-60 39 -109 39q-97 0 -165 -105 t-68 -256z" />
<glyph unicode="A" horiz-adv-x="1366" d="M27 31q0 34 28 98q49 109 129 299l211 535q20 50 60 174q23 72 28 106q2 11 2 19l4 16v8q0 6 -2 14h7q27 0 139 41q21 8 102 35q43 15 66 15q31 0 48 -28t40 -118q35 -139 203 -551q143 -352 215 -485q32 -61 32 -90q0 -34 -36 -64q-47 -38 -112.5 -68t-100.5 -30 q-54 0 -115 145l-92 220q-6 14 -15.5 32t-25.5 25q-24 10 -127 10q-148 0 -271 -31l-8 -2l-41 -123l-33 -106l-8 -35q-12 -51 -87 -90t-161 -39q-79 0 -79 68zM530 606q99 19 177 19h18l35 -2h16v14l-57 151l-64 205q-2 -10 -4 -22q-11 -32 -57 -174l-57 -179z" />
<glyph unicode="B" horiz-adv-x="1296" d="M-41 1034v15q0 132 82 217q121 125 514 125q275 0 435.5 -100t160.5 -271q0 -205 -287 -330q365 -38 365 -317q0 -179 -165.5 -285t-442.5 -106q-203 0 -328 38q-88 28 -123 98t-35 218q0 115 4 293q3 119 11 284q6 136 6 193v4q-115 -18 -197 -76zM446 369 q0 -77 21 -111q36 -57 164 -57q233 0 233 164q0 186 -291 186h-110l-12 -2v-8l-2 -115q-3 -14 -3 -57zM459 778h10q161 0 251.5 58t90.5 157q0 162 -260 162q-27 0 -43 -2l-33 -4h-8v-10q0 -12 -2 -61q-3 -59 -4 -105q-2 -81 -2 -162v-33z" />
<glyph unicode="C" horiz-adv-x="1157" d="M109 625q0 342 181.5 558t469.5 216q171 0 275 -59.5t104 -157.5q0 -112 -156 -193q-123 150 -254 150q-124 0 -199 -113.5t-75 -300.5q0 -243 96 -391t256 -148q90 0 197.5 38.5t181.5 97.5q-8 -151 -152 -260t-336 -109q-134 0 -254 61q-335 173 -335 611z" />
<glyph unicode="D" horiz-adv-x="1354" d="M0 1130q0 119 137.5 193t360.5 74q158 0 307.5 -51t241.5 -136q196 -182 196 -503q0 -325 -213 -543q-186 -191 -475 -191q-257 0 -365 103q-75 72 -75 311q0 104 14 324l12 188q8 116 27 186q-98 -19 -139 -57q-29 55 -29 102zM459 528v-15q0 -172 22 -234 q27 -72 109 -72q124 0 210.5 137.5t86.5 337.5q0 176 -80 307q-70 115 -213 115q-37 0 -94 -8l-2 -11q-37 -182 -39 -557z" />
<glyph unicode="E" horiz-adv-x="1122" d="M41 1073v23q0 55 20 106q23 57 62 84q44 31 111 43t235 19q89 3 217 14l195 16q118 10 150 18.5t69 39.5q12 -25 12 -60q0 -69 -26.5 -124.5t-90 -77.5t-217.5 -29q-83 0 -295 -21l-12 -2l-2 -12l-14 -147l-9 -172l15 2l80 12q76 12 125 24q135 36 186 62l6 6 q31 -28 31 -96q0 -69 -37 -121q-53 -74 -195 -98l-145 -26q-35 -6 -59 -9q-4 -2 -13 -2v-15q0 -16 -2 -48.5t-2 -49.5q0 -138 40 -176.5t183 -38.5q271 0 379 102q47 -73 47 -141q0 -209 -444 -209q-93 0 -172 6q-205 16 -291 99q-59 56 -63 176q-2 55 -2 104q0 31 2 82 t2 72v12h-4q-39 0 -39 45v27q10 89 18 106q5 16 21 19v10q4 34 10 182q4 105 10 170l2 8q-41 0 -94 -14z" />
<glyph unicode="F" horiz-adv-x="1098" d="M55 1061v10q0 96 31 148q29 47 74 69q58 28 321 45q201 13 410 35q153 16 231 55q2 -30 2 -73q0 -127 -60.5 -167.5t-268.5 -52.5l-183 -10q-38 -2 -110 -8q-12 -2 -17 -2q0 -6 -2 -10q-3 -38 -11.5 -149.5t-8.5 -155.5v-17l10 2l76 15q241 45 323 92q37 -40 37 -113 q0 -91 -57 -133q-84 -62 -383 -104l-14 -2v-97q0 -159 26 -254q17 -58 17 -73q0 -46 -52 -77q-22 -13 -92 -38q-102 -37 -133 -37q-46 0 -67 43q-29 57 -29 248v18l2 123l4 121q-6 -2 -14 -2q-29 0 -29 47v8l4 60q2 28 10 69q8 14 31 17v8l23 360q-42 0 -101 -18z" />
<glyph unicode="G" horiz-adv-x="1350" d="M109 692q0 312 183.5 514.5t467.5 202.5q153 0 258.5 -64.5t105.5 -158.5q0 -117 -157 -193q-34 68 -100.5 113t-133.5 45q-126 0 -199 -117t-73 -319q0 -208 90.5 -359t216.5 -151q106 0 106 170q0 31 -4 49q-117 -20 -182 -62q0 15 2 17l10 97q3 29 7 63q10 54 45 86 q58 52 235 65q161 12 214 24.5t122 53.5v-6q12 -59 12 -119q0 -53 -6 -76q-23 -83 -123 -104v-12q0 -23 1 -48.5t1 -29.5q0 -47 13 -107q6 -29 6 -41q0 -45 -72 -102q-202 -162 -426 -162q-310 0 -467 219q-153 215 -153 512z" />
<glyph unicode="H" horiz-adv-x="1341" d="M68 543q0 9 6 28l41 127q10 31 24 31h2v21q0 16 11 186q5 85 5 148q0 27 -1 51q-2 49 -2 67q0 38 -9 66h9q39 11 145 63q67 33 143 33q84 0 84 -53q0 -18 -4 -43l-22 -138q-31 -195 -31 -342v-14l12 2l172 35l217 37v8l15 358l-2 117h8q26 0 162 41q54 17 100 17 q80 0 80 -66q0 -34 -8 -89q-9 -71 -11 -89l-24 -285q-6 -104 -6 -256q0 -318 18 -469q4 -33 4 -36t1 -7t1 -6q0 -43 -49 -59q-169 -58 -215 -58t-57 54q-10 47 -13 116q-10 287 -10 467v8h-10l-203 -34l-198 -39v-95q0 -27 4 -105.5t14 -154.5q8 -60 8 -73q0 -56 -82 -90 q-118 -50 -168 -50q-40 0 -55 25q-11 13 -17 42.5t-16 115.5q-9 81 -10 131l-2 217q0 1 2 6l-6 -2h-6q-51 0 -51 35z" />
<glyph unicode="I" horiz-adv-x="616" d="M137 365l2 237l6 272q2 65 9 201l8 178q0 52 -6 78h14q49 8 156 39q64 19 108 19q74 0 74 -72q0 -30 -4 -62l-15 -110q-38 -300 -38 -637q0 -59 28 -404q2 -28 2 -24q0 -35 -43 -49q-191 -62 -223 -62q-46 0 -61 63q-6 25 -9 101z" />
<glyph unicode="J" horiz-adv-x="961" d="M-55 182q34 2 82 39q79 62 147 62q45 0 100 -33q69 -41 117 -41q80 0 103 70q18 56 18 221q0 659 -57 809h12q85 0 217 49l55 20q21 4 33 4q47 0 47 -69q0 -71 -5 -212t-5 -212q0 -176 8 -361q6 -138 6 -180q0 -158 -61 -246q-44 -63 -138 -101t-206 -38q-124 0 -234 43 t-170 115q-39 48 -59 59q-4 0 -10 2z" />
<glyph unicode="K" horiz-adv-x="1204" d="M96 559q0 15 6 37q20 67 43 113q9 15 29 18v6q16 92 16 365q0 145 -26 205q90 13 207 59q68 27 102 27q49 0 49 -66l-2 -20q0 -57 -18 -299q-6 -81 -25 -238l17 10q135 85 233 197q164 187 164 301q0 10 -2 16h12q37 0 100 39q90 55 123 55q68 0 68 -73q0 -164 -211 -396 q-158 -173 -291 -249q64 -16 131 -134q63 -110 84 -144q53 -86 96 -136q40 -45 99 -45q28 0 65 12q13 -24 13 -59q0 -88 -58 -143.5t-149 -55.5q-58 0 -105 21q-95 41 -188 208l-84 152l-109 188l-14 -6v-47q0 -149 25 -274q8 -41 8 -70q0 -37 -35 -63q-119 -90 -213 -90 q-40 0 -57 30q-10 24 -13 58q-18 288 -18 385v53l2 6h-8q-66 0 -66 47z" />
<glyph unicode="L" horiz-adv-x="979" d="M109 594q0 46 14 233t14 342v17q0 65 -24 84q34 7 77 35q41 25 97 61q77 45 149 45q74 0 74 -59q0 -12 -8 -49q-24 -108 -43 -329t-19 -392q0 -230 41 -295q34 -54 181 -54q194 0 301 50q57 -76 57 -138q0 -159 -422 -159q-326 0 -422 108q-28 33 -41 90q-26 125 -26 410 z" />
<glyph unicode="M" horiz-adv-x="1645" d="M109 221q0 269 47 737q10 102 10 162q0 125 -47 164q75 30 170 84q119 68 162 68q44 0 77 -54q19 -30 39 -69q57 -111 162 -379q38 -92 84 -207l6 -16q62 188 205 473q116 231 219 231q35 0 141 -26q59 -15 103 -21q-25 -31 -25 -100q0 -78 11 -232q9 -141 18 -325 l13 -285q5 -121 5 -211q0 -250 -92 -250q-22 0 -57 10q-104 31 -149.5 57.5t-45.5 76.5q0 18 4 41q7 80 17 242q2 54 2 108q0 28 -2 100q-4 143 -4 182q0 86 -6 127q-32 -50 -72 -143q-21 -48 -55 -137q-47 -120 -80 -275q-16 -73 -25 -84q-14 -22 -76 -53l-57 -29l-115 -49 l2 13q0 103 -151 462q-78 185 -135 293l-2 -22l-7 -137l-12 -220q0 -49 2 -84q8 -134 33 -274q4 -23 4 -49q0 -52 -53 -78q-41 -20 -84 -33q-75 -22 -109 -22q-32 0 -47 20q-28 41 -28 213z" />
<glyph unicode="N" horiz-adv-x="1305" d="M123 1288q34 14 133 72q80 47 129 47t86 -54.5t88 -201.5q75 -217 221 -494q52 -98 92 -143q2 27 5 131q1 136 6 223q8 162 8 209q0 113 -33 178h14q48 7 111 52q104 73 150 73q63 0 63 -71q0 -11 -6 -60q-43 -340 -43 -737q0 -114 2 -150l8 -141q4 -62 8 -92.5t4 -36.5 q0 -41 -65 -63q-38 -13 -80.5 -29t-65.5 -16q-62 0 -149 102q-188 221 -317 446q-28 48 -76 148v-25q0 -103 4 -182q6 -127 41 -283q10 -46 10 -63q0 -51 -43 -94q-82 -82 -158 -82q-38 0 -61 22q-64 62 -64 488q0 75 8.5 276.5t8.5 249.5q0 236 -39 301z" />
<glyph unicode="O" horiz-adv-x="1419" d="M109 692q0 196 84 375q36 79 56 100t62 29q-12 12 -12 29q0 69 119 123.5t268 54.5q280 0 445 -194.5t165 -524.5q0 -327 -162.5 -529t-426.5 -202q-271 0 -434.5 203t-163.5 536zM442 672q0 -237 72.5 -374.5t198.5 -137.5q123 0 195.5 137t72.5 369q0 230 -73 366.5 t-197 136.5q-122 0 -195.5 -136t-73.5 -361z" />
<glyph unicode="P" horiz-adv-x="1223" d="M-41 1040q20 147 92 222q60 61 189.5 98t287.5 37q280 0 453.5 -139t173.5 -363q0 -217 -146.5 -352t-381.5 -135q-121 0 -185 28v-18q0 -142 17 -258q6 -44 6 -58q0 -45 -33 -67q-43 -30 -149 -64q-51 -16 -78 -16q-42 0 -52 46.5t-10 334.5q0 514 33 776l2 16l-12 -6 l-105 -35zM446 668q57 -33 142 -33q114 0 178.5 61t64.5 168q0 123 -84 201t-217 78q-32 0 -59 -4q-2 -7 -2 -13q-5 -59 -14 -219q-9 -182 -9 -225v-14z" />
<glyph unicode="Q" horiz-adv-x="1425" d="M109 692q0 197 84 375q55 117 118 129q-12 12 -12 29q0 69 119 124.5t268 55.5q282 0 446 -196t164 -533q0 -164 -43 -293q-58 -174 -159 -272q46 -33 98 -33q91 0 123 72q28 -45 28 -87q0 -82 -57.5 -136t-146.5 -54q-149 0 -242 117l-8 -2q-139 -35 -207 -35 q-252 0 -412.5 207.5t-160.5 531.5zM442 666q0 -234 73.5 -370t199.5 -136l24 4l-4 4q-82 110 -82 180q0 80 76 80q40 0 80 -63q45 -73 80 -97q92 133 92 402q0 227 -73.5 363t-196.5 136t-196 -136.5t-73 -366.5z" />
<glyph unicode="R" horiz-adv-x="1292" d="M-41 1038q2 60 12 101q17 68 78 125q142 133 447 133q194 0 337.5 -55.5t234.5 -189t91 -288.5q0 -171 -133 -301q-71 -69 -129 -90q41 -19 70 -72l53 -98q56 -104 149 -104q37 0 68 12v-6q0 -252 -213 -252q-70 0 -117 24q-62 33 -211 248q-62 90 -104 127 q-48 41 -135 76l-21 8q2 -100 20.5 -207.5t18.5 -126.5q0 -36 -16 -53q-28 -38 -172 -80q-43 -12 -60 -12q-51 0 -69.5 64.5t-24.5 150.5q-10 155 -10 487q0 312 18 441l2 14l-14 -4q-98 -28 -170 -72zM440 735q0 -9 1 -28.5t1 -28.5q0 -4 2 -12q11 -5 56 -15 q76 -16 112 -16q92 0 153.5 62.5t61.5 156.5q0 124 -88 205.5t-223 81.5q-31 0 -57 -4v-11q0 6 -13 -223q-6 -114 -6 -168z" />
<glyph unicode="S" horiz-adv-x="1139" d="M-27 264q3 2 6.5 5t4.5 3q12 10 59 47q88 72 141 72q42 0 97 -49q145 -131 284 -131q74 0 117 39.5t43 105.5q0 60 -43 97q-39 33 -170 112q-190 115 -257.5 169t-121 132.5t-53.5 182.5q0 158 129.5 256t339.5 98q179 0 302.5 -73t123.5 -179q0 -96 -135 -176 q-54 78 -145 131t-171 53q-100 0 -100 -86q0 -46 50 -91.5t194 -127.5q122 -70 221 -143q168 -125 168 -316q0 -189 -140.5 -306.5t-367.5 -117.5q-195 0 -338 80q-121 68 -229 203z" />
<glyph unicode="T" horiz-adv-x="1196" d="M-14 1225q0 43 53 80l102 69q27 18 41 35q42 -53 176 -53h60l4 -2q0 3 -1 7.5t-1 6.5q0 21 14 33q13 7 66 16q86 15 153 15h6q59 0 70 -24q6 -13 6 -44v-2q20 1 99 14q152 33 239 33q83 0 133 -66l45 -59l-8 -6l-76 -55q-75 -56 -282 -56q-39 0 -58 2h-41q-30 0 -49 -2 l-2 -14q-2 -18 -12 -264q-6 -155 -6 -225q0 -425 82 -527q-60 -34 -121 -86l-60 -51q-47 -39 -88 -39q-124 0 -124 379q0 66 6 199q10 221 10 362v270h-8q-26 0 -90 -6q-71 -6 -114 -6h-20l-79 4q-125 7 -125 62z" />
<glyph unicode="U" horiz-adv-x="1356" d="M137 555q0 120 15 358q12 205 12 281q0 64 -21 98h7q24 0 67 15q29 10 72 24l127 53q24 11 55 11q53 0 53 -49q0 -19 -4 -41l-12 -68q-64 -349 -64 -629q0 -209 57.5 -303t184.5 -94q138 0 180 113q12 31 21 73q25 126 31 418q1 104 8 301q2 40 2 74q0 102 -13 151h13 q73 0 141 23l74 25q24 8 55 8q64 0 64 -54q0 -14 -5 -36q-11 -66 -22 -199q-14 -180 -18 -283q-2 -65 -9 -313q-6 -223 -65 -324q-61 -104 -184 -163.5t-277 -59.5q-217 0 -365 101q-100 68 -140 176.5t-40 312.5z" />
<glyph unicode="V" horiz-adv-x="1317" d="M-27 1278q23 10 107 55q144 82 176 82q22 0 41 -24l18 -25q38 -50 80 -152q147 -351 195 -516l65 -221q2 -6 11 -26l6 20l61 168q144 393 260 610q52 97 94 128.5t119 31.5q29 0 66 -4l112 -12q-91 -98 -192 -295q-123 -240 -248 -553q-123 -307 -123 -383q0 -57 13 -96 l-15 -7q-60 -21 -133 -49q-16 -7 -70 -35q-33 -18 -61 -18q-47 0 -55 76l-11 90l-28 102l-60 164l-102 291q-7 19 -158 336q-27 57 -82 162q-50 86 -86 100z" />
<glyph unicode="W" horiz-adv-x="1776" d="M14 1243q12 3 13 6q33 16 118 82q98 76 168 76q52 0 72 -33q8 -13 33 -114l88 -365l43 -209l26 -111l3 -16l6 19q45 135 112 323q52 143 52 225q0 37 -23 91q6 -3 12 -3q35 0 125 35q112 43 168 43q38 0 45 -63l4 -37q6 -53 23 -152q21 -125 43 -200l49 -170 q13 -47 33 -111q2 -6 10 -27l6 21l90 287q111 351 176 450q59 88 185 88q71 0 164 -37q-33 -9 -58 -49q-13 -21 -33 -61q-60 -124 -174 -445q-46 -129 -86 -254q-66 -206 -92 -321q-24 -111 -24 -148q0 -30 20 -53h-14q-88 0 -223 -45q-37 -12 -58 -12q-63 0 -74 65 q-4 28 -18 93q-30 139 -37 163l-39 150q-19 76 -35 117l-28 77l-6 21q-3 -5 -9 -21q-41 -103 -77 -210q-80 -236 -80 -340q0 -29 6 -58l-25 -2l-119 -12l-79 -19q-36 -8 -62 -8q-74 0 -82 62l-22 168q-15 106 -49 262q-65 287 -129 520q-61 218 -138 262z" />
<glyph unicode="X" horiz-adv-x="1280" d="M41 61q0 17 6 29q3 7 21 27q8 9 24 28q165 194 250 324l137 207l-4 8q-58 116 -194 334q-109 174 -215 244q5 2 12 4q11 3 116.5 65t174.5 62q28 0 49 -15q29 -20 85 -96.5t93 -148.5l94 -181q3 5 8 15q12 20 52 90q110 196 180 286q45 60 96 60q19 0 53 -12l74 -27 l113 -35q-53 -24 -113 -90q-55 -61 -106 -131q-72 -97 -117 -170q-22 -38 -115 -195l-6 -10l6 -8l98 -174l99 -170q80 -138 132.5 -192t100.5 -58l-14 -10l-84 -76q-21 -20 -53 -45q-58 -45 -105 -45q-59 0 -139 96q-63 76 -162 254q-61 110 -88 178l-8 -14l-88 -145 l-172 -269q-33 -50 -33 -80q0 -6 2 -12l-8 2l-117 15q-135 16 -135 81z" />
<glyph unicode="Y" horiz-adv-x="1333" d="M0 1219q8 4 10 6q45 26 135 90q87 61 140 61q40 0 67.5 -35t83.5 -206q97 -297 221 -467l5 8q17 28 79 139q58 103 174 326q107 204 183 241q57 29 164 29q61 0 135 -8q5 0 18 -2l-8 -8q-60 -79 -143 -215l-168 -275l-138 -244l-159 -290v-17q0 -19 -1 -51.5t-1 -44.5 q0 -90 8 -145q4 -28 4 -41q0 -99 -209 -99q-143 0 -143 64q0 27 8 61q14 59 14 119v-1l-4 161l-2 10l-2 6q-3 5 -100 168q-143 239 -248 502q-50 123 -123 158z" />
<glyph unicode="Z" horiz-adv-x="1260" d="M68 6q10 78 29 124t73 126l164 242l137 221l117 207q12 22 80 135q21 36 59 104l-12 -2q-44 -1 -162 -12q-184 -16 -291 -16q-62 0 -88 4q-90 14 -90 96q0 28 14 53l29 51q20 37 20 62q-2 9 -2 8q102 -25 375 -25h107l315 13q138 5 182 18l13 6l-7 -16l-6 -105 q-3 -63 -82 -186q-101 -160 -313 -514q-78 -130 -205 -352l-8 -15q109 -24 250 -24q85 0 190 22q123 27 174 62l5 4q57 -69 57 -143q0 -75 -59 -121q-30 -23 -56 -29q-96 -31 -225 -31q-35 0 -156 19q-174 26 -465 26q-82 0 -163 -12z" />
<glyph unicode="[" horiz-adv-x="657" d="M123 -195q0 113 6 236q3 56 4 213l-4 1286q0 113 84 113q2 0 138 -10q47 -3 114 -3q91 0 125 25l2 -6q12 -82 12 -92q0 -55 -35.5 -78t-150.5 -23h-29q-1 -4 -2 -16q-2 -15 -8 -100q-3 -42 -10 -254l-9 -244l-2 -172v-160l11 -491q1 -73 6 -123q22 2 45 2q104 0 143 -29 t39 -104q0 -49 -18 -74q-57 25 -172 25h-66q-39 0 -79.5 -1t-41.5 -1h-20q-82 0 -82 81z" />
<glyph unicode="\" horiz-adv-x="1159" d="M55 1473h140q80 0 135 -113l739 -1538q16 -35 29 -60q3 -3 6 -12q-47 10 -152 12q-49 2 -72 21q-19 17 -40 67q-15 39 -45 107z" />
<glyph unicode="]" horiz-adv-x="590" d="M55 -229q0 78 39.5 107.5t145.5 29.5q20 0 43 -2q3 42 6 123l6 213l2 610l-8 244q-6 170 -10 254q-4 65 -11 116h-28q-108 0 -146.5 21.5t-38.5 79.5q0 30 13 92v6q35 -25 125 -25q78 0 131 5q104 8 122 8q84 0 84 -113q0 -2 -1 -7t-1 -7l-8 -162l4 -1110q1 -133 4 -213 q7 -164 7 -236q0 -81 -82 -81h-21q-2 0 -42.5 1t-78.5 1h-65q-119 0 -170 -25q-21 23 -21 70z" />
<glyph unicode="^" d="M88 586l98 96l-98 96l21 21l96 -97l96 97l21 -21l-99 -96l99 -96l-21 -19l-96 97l-96 -97z" />
<glyph unicode="_" horiz-adv-x="1143" d="M0 -164h1143v-149h-1143v149z" />
<glyph unicode="`" horiz-adv-x="535" d="M55 1296l17 11q108 67 164 67q36 0 81 -39q65 -55 109 -80q19 -10 53 -18l-14 -12q-86 -74 -141 -74q-42 0 -146 80q-69 53 -123 65z" />
<glyph unicode="a" horiz-adv-x="969" d="M0 395q0 235 141.5 409.5t331.5 174.5q169 0 242 -150q43 -88 43 -141q0 -28 -27 -57l10 2h29q51 0 51 -33q0 -4 -6 -27q-33 -121 -33 -211q0 -163 101 -163q29 0 59 24q12 -24 12 -55q0 -83 -52.5 -133.5t-141.5 -50.5q-163 0 -201 151q-88 -147 -254 -147 q-140 0 -222.5 110t-82.5 297zM283 401q0 -170 90 -170q44 0 79 63.5t46 166.5q10 97 32 112q-34 3 -34 37l2 8v31q0 92 -60 92q-62 0 -108.5 -102t-46.5 -238z" />
<glyph unicode="b" horiz-adv-x="1044" d="M27 596q0 306 26 543q2 18 2 55q0 72 -18 100q5 0 10 2q38 8 121 54q104 57 158 57q71 0 71 -68q0 -10 -4 -43l-31 -135q-34 -153 -34 -276v-15q105 125 258 125q144 0 226.5 -125.5t82.5 -345.5q0 -242 -120 -387t-320 -145q-120 0 -211 76q-13 -2 -25 -2q-62 0 -119 50 q-40 38 -51 93q-22 117 -22 387zM334 289l2 -13l2 -4q46 -67 92 -67q68 0 114 90t46 225q0 107 -28 172.5t-73 65.5q-66 0 -110.5 -119.5t-44.5 -294.5v-55z" />
<glyph unicode="c" horiz-adv-x="895" d="M14 465q0 229 126 374.5t327 145.5q130 0 211.5 -62.5t81.5 -160.5q0 -72 -44.5 -122t-109.5 -50q-27 0 -67 14q2 8 2 19q0 45 -24 74.5t-62 29.5q-57 0 -96.5 -76.5t-39.5 -187.5q0 -128 47 -200.5t130 -72.5q64 0 138.5 48t110.5 114q41 -24 41 -96 q0 -124 -94.5 -202.5t-245.5 -78.5q-204 0 -318 129t-114 361z" />
<glyph unicode="d" horiz-adv-x="1055" d="M27 420q0 236 112.5 407.5t268.5 171.5q80 0 151 -79v22l6 102l-2 144l-6 65q-3 38 -10 52q-2 3 -8 14h6q48 0 129 31q108 41 149 41q72 0 72 -64q0 -19 -6 -47q-14 -62 -33 -334q-22 -317 -22 -469q0 -163 27.5 -229t96.5 -66q21 0 41 11q-2 -207 -188 -207 q-152 0 -211 127l-6 -9q-119 -118 -250 -118q-149 0 -233 115t-84 319zM328 403q0 -188 94 -188q56 -1 92 85q35 81 35 204v14l-2 168q-39 53 -84 53q-63 0 -92 -77q-43 -114 -43 -259z" />
<glyph unicode="e" horiz-adv-x="823" d="M0 463q0 223 110.5 376.5t270.5 153.5q116 0 195 -81t79 -199q0 -117 -92 -223t-229 -148q28 -143 147 -143q93 0 193 77l47 37l4 4q16 -30 16 -77q0 -107 -102 -182.5t-248 -75.5q-177 0 -284 131.5t-107 349.5zM289 606q0 -41 14 -67q57 12 92 56.5t35 104.5 q0 64 -49 64q-37 0 -64.5 -47.5t-27.5 -110.5z" />
<glyph unicode="f" horiz-adv-x="698" d="M-219 -293q14 6 57 39q46 43 82 43q26 0 74 -31q35 -22 57 -22q70 0 70 123v110q0 169 -4 287l-13 350q0 30 -2 69t-2 48v12l-8 -2q-10 0 -40.5 -1t-43.5 -1q-129 0 -129 55q0 38 58 80q38 28 53 49q20 -22 67 -22q19 0 43 2q-4 25 -4 74q0 108 13 184 q21 132 123.5 213.5t248.5 81.5q112 0 198.5 -73t86.5 -167q0 -64 -53.5 -106.5t-134.5 -42.5h-33q10 18 10 41q0 45 -23 76.5t-57 31.5q-45 0 -58 -58q-5 -23 -5 -93v-37l2 -129h8l45 2h16q175 0 228 -127l-15 -2q-53 -8 -141 -15.5t-127 -13.5l-14 -2v-6q0 -10 2 -109 q0 -69 2 -288l4 -271q0 -11 1 -49q1 -30 1 -49q0 -170 -33 -262q-64 -180 -293 -180q-45 0 -94 10q-82 17 -174 125q-15 16 -49 53z" />
<glyph unicode="g" horiz-adv-x="981" d="M0 397q0 240 135 413t324 173q88 0 151 -39q51 -31 97 -104q49 -76 49 -133q0 -27 -25 -78q8 0 12 2q15 2 33 2q41 0 41 -39q0 -27 -14 -86q-9 -38 -12 -62q-5 -32 -9 -94l-10 -164q-3 -39 -3 -75q0 -18 1 -35q4 -135 4 -201q0 -344 -305 -344q-84 0 -165.5 40t-113.5 97 l-43 78l-8 8q54 70 150 70q37 0 59 -8l39 -15q17 -6 37 -6q86 0 86 127v6l-2 142q-86 -82 -219 -82q-126 0 -207.5 115t-81.5 292zM276 410q0 -177 91 -177q50 0 85.5 65.5t39.5 166.5q3 88 36 108q-34 3 -34 45v5q0 15 1 33t1 20q0 67 -54 67q-51 0 -86 -55 q-80 -126 -80 -278z" />
<glyph unicode="h" horiz-adv-x="1071" d="M41 383q0 164 18.5 349.5t20.5 223.5q1 19 6 156q2 52 2 53q0 52 -10 82q-6 6 -12 15q55 9 139 61q101 63 151 63q84 0 84 -94q0 -31 -10 -88l-35 -192q-36 -200 -49 -391q163 303 328 303q142 0 174 -146q18 -85 18 -190v-168q0 -131 18 -183.5t62 -52.5q51 0 115 64 q10 -23 10 -49q0 -103 -65 -160t-181 -57q-127 0 -183 81t-58 269q-2 137 -4 147q0 27 -2 39q-3 60 -29 60q-35 0 -107 -138q-82 -157 -82 -319q0 -45 5 -58q2 -4 4 -10l-11 -4q-115 -69 -178 -69q-77 0 -108 90t-31 313z" />
<glyph unicode="i" horiz-adv-x="590" d="M27 1171v7q0 106 151 180q72 35 135 35q140 0 140 -111q0 -74 -97 -141q-102 -72 -206 -72q-54 0 -88.5 29t-34.5 73zM37 797q12 2 20 2q41 9 136 67q75 47 147 47t72 -73q0 -35 -13 -129q-3 -27 -12 -144q-8 -108 -8 -149q0 -141 29 -268q12 -54 43 -93 q-47 -14 -105 -39q-95 -41 -145 -41q-42 0 -76 27q-37 30 -47 63q-6 22 -6 78q0 91 2 129l8 156q2 39 2 68q0 239 -47 299z" />
<glyph unicode="j" horiz-adv-x="578" d="M-272 -279l14 11l70 61q30 27 57 27q22 0 55 -19q16 -8 35 -18q30 -16 59 -16q57 0 68 71q12 82 12 211q0 199 -20 459q-17 218 -64 289q9 2 13 2q38 9 145 67q93 52 158 52q71 0 71 -95q0 -40 -4 -112l-8 -146q-8 -145 -8 -305q0 -31 4 -176l4 -190q0 -191 -65 -265 q-81 -90 -248 -90q-154 0 -289 131q-36 35 -59 51zM-10 1174v6q0 108 151 182q72 35 133 35q63 0 101.5 -30.5t38.5 -80.5q0 -78 -95 -141q-106 -72 -206 -72q-54 0 -88.5 28.5t-34.5 72.5z" />
<glyph unicode="k" horiz-adv-x="1059" d="M41 487q0 136 4 199l16 254l5 221q0 86 -9 105q0 2 -6 8q4 2 6 4q40 13 131 72q87 55 146 55q94 0 94 -90q0 -29 -16 -103q-74 -331 -74 -569q0 -43 4 -72q4 2 8 7q77 47 166 131q115 106 115 184q0 10 -2 16h14q30 3 98 23q43 12 72 12q86 0 86 -74q0 -126 -287 -333 q110 -64 209 -220q58 -90 84.5 -112.5t63.5 -22.5q51 0 78 41q12 -34 12 -59q0 -80 -69 -134.5t-169 -54.5q-129 0 -231 148l-98 141l-86 113l-66 -39l2 -8l14 -92q16 -103 56 -150q-74 -108 -215 -108q-69 0 -99 47q-57 91 -57 460z" />
<glyph unicode="l" horiz-adv-x="582" d="M41 303q0 187 22 383l27 232q6 53 6 153q0 141 -22 203q8 2 18 4q19 11 94 59q45 29 115 52q32 10 55 10q88 0 88 -109q0 -57 -20 -170q-38 -211 -57 -434q-17 -191 -17 -278q0 -183 121 -183q48 0 78 27q18 -25 18 -64q0 -96 -67 -152t-183 -56q-126 0 -201 76.5 t-75 246.5z" />
<glyph unicode="m" horiz-adv-x="1532" d="M41 881l14 2q30 9 92 51q103 67 181 67q73 0 73 -92q0 -25 -12 -112q-10 -73 -10 -131q0 -3 1 -10t1 -13l8 14q55 97 134 155t155 58q66 0 104 -40t66 -138q17 31 76 94q98 107 215 107q209 0 209 -289q0 -22 -6.5 -106.5t-6.5 -159.5q0 -141 84 -141q68 0 97 45 q4 -15 4 -33q0 -94 -75 -158.5t-183 -64.5q-244 0 -244 346l5 60q5 60 5 149v8q0 45 -22 45q-15 0 -41 -35q-7 -8 -21 -27q-55 -97 -63 -159l-15 -107q-5 -38 -4 -61l2 -53q0 -53 -28.5 -79t-108.5 -46l-57 -15q-33 -8 -56 -8q-55 0 -55 78v6q0 41 12 184l6 70 q11 124 11 156q0 71 -33 71q-41 0 -82 -100q-44 -108 -68 -182q-4 -13 -8 -25q-18 -59 -18 -115q0 -15 2 -28.5t2 -32.5q0 -25 -25 -49q-80 -78 -153 -78q-59 0 -97 62.5t-38 160.5q0 31 6 125q10 158 10 264q0 228 -45 310z" />
<glyph unicode="n" horiz-adv-x="1085" d="M41 895h12l148 68q58 26 110 26q90 0 90 -51q0 -16 -10 -49q-37 -119 -43 -268l8 10q49 88 97 147q113 144 239 144q191 0 191 -275v-39q0 -218 8 -319q8 -105 80 -105q43 0 106 64q8 -30 8 -47q0 -91 -69 -156t-164 -65q-99 0 -154 28q-58 31 -82 101t-26 219l-2 112 q0 6 -4 73t-33 67q-35 0 -107 -136q-79 -151 -79 -333q0 -43 10 -58q-18 -18 -49 -33q-87 -40 -142 -40q-60 0 -90 53q-47 84 -47 350q0 74 8 272q2 50 2 140q0 67 -16 100z" />
<glyph unicode="o" horiz-adv-x="1040" d="M14 471q0 149 70 260q48 77 92 92l-14 49q34 41 122 74t162 33q199 0 322 -143t123 -375q0 -228 -117.5 -362t-318.5 -134q-192 0 -316.5 143t-124.5 363zM322 539q0 -148 48.5 -247t121.5 -99q118 0 118 194q0 143 -49.5 244.5t-120.5 101.5q-53 0 -85.5 -53.5 t-32.5 -140.5z" />
<glyph unicode="p" horiz-adv-x="1077" d="M14 866q3 1 11 4.5t120 69.5q76 45 129 45q64 0 76 -78q3 -23 8 -49q0 -6 2 -12q96 149 244 149q142 0 233 -128.5t91 -329.5q0 -246 -118 -409t-296 -163q-53 0 -108 19l-44 14l-10 4v-8q0 -38 2 -62q1 -30 6 -69q5 -35 25 -123q12 -41 12 -64q0 -49 -66.5 -83.5 t-158.5 -34.5q-55 0 -88 39q-37 45 -37 245q0 84 4 160l15 266q6 114 6 234v69q0 244 -58 295zM360 242q57 -49 117 -49q69 0 108.5 81t39.5 224q0 256 -101 256q-69 0 -116.5 -116t-47.5 -284v-112z" />
<glyph unicode="q" horiz-adv-x="1014" d="M14 408q0 256 117 409.5t313 153.5q57 0 109 -19l92 -32l49 -2q154 -7 154 -109q0 -15 -2 -39q-12 -142 -12 -342q0 -178 6 -268l37 -500v-6q0 -53 -64 -82q-94 -43 -184 -43q-92 0 -92 86q0 17 10 66q15 70 16 163l2 146q0 22 -1 52t-1 38q0 4 -2 12 q-100 -121 -239 -121q-146 0 -227 115t-81 322zM311 416q0 -97 26.5 -155t70.5 -58q133 0 133 327v56l-2 94h-9q-4 0 -8 4l-14 14q-22 25 -59 25q-60 0 -99 -87t-39 -220z" />
<glyph unicode="r" horiz-adv-x="825" d="M27 868l8 4l61 46q112 81 207 81q64 0 64 -65v-4l-2 -33l-3 -55l-6 -62q119 176 256 176q77 0 124.5 -47t47.5 -123q0 -54 -30 -104q-57 -92 -140 -92q-4 0 -8 2q2 6 2 16q0 36 -24 60t-60 24q-54 0 -94 -65q-86 -142 -86 -316q0 -73 21 -136t49 -79q-28 -47 -84.5 -79.5 t-110.5 -32.5q-184 0 -184 196q0 28 6 84q6 65 14 142q4 38 4 147q0 235 -32 315z" />
<glyph unicode="s" horiz-adv-x="899" d="M-41 115q2 1 6 4q33 33 68 71q53 60 104 60q21 0 53 -14l52 -29q58 -33 127 -33q65 0 65 57q0 49 -76 95l-67 41q-132 80 -187 133q-77 76 -77 184q0 124 103.5 199t272.5 75q154 0 251.5 -48.5t97.5 -125.5q0 -75 -113 -157q-26 55 -92 94t-133 39q-76 0 -76 -53 q0 -31 59 -68q37 -24 82 -51q109 -74 162 -115q121 -93 121 -233q0 -133 -100 -212t-269 -79q-189 0 -350 114q-50 36 -84 52z" />
<glyph unicode="t" horiz-adv-x="766" d="M-123 836q0 36 100 153l5 6q42 -22 137 -22q18 0 28 2v6q3 26 7 102l4 84q1 44 6 64q8 33 74 51l118 33q75 20 111 20q51 0 51 -45q0 -16 -22 -78q-6 -20 -19 -86q-4 -24 -12 -67q0 -5 -6 -64v-8h8q93 0 132 -8q68 -15 112 -64q-18 -17 -35 -47q-28 -48 -82 -77 q-45 -25 -96 -25q-21 0 -58 4h-10v-12l-14 -142q-6 -60 -6 -133q0 -2 2 -90q1 -61 24 -106q37 -72 113 -72q74 0 147 80q6 -22 6 -37q0 -112 -86.5 -190t-214.5 -78q-152 0 -233 114q-66 94 -66 271q0 11 11 264q3 75 8 129h-8q-111 0 -136 3q-100 13 -100 65z" />
<glyph unicode="u" horiz-adv-x="1014" d="M27 813q9 2 18 6q29 11 119 76q96 70 143 70q88 0 88 -99q0 -38 -6 -96q-2 -7 -18.5 -182.5t-16.5 -218.5q0 -121 52 -121q59 0 88 106q41 154 41 310q0 95 -21 139l16 4q17 7 31 14q41 22 123 65q74 40 131 40q64 0 64 -72q0 -27 -27 -164t-27 -287q0 -194 70 -194 q24 0 51 24q15 -33 15 -71q0 -72 -53.5 -119t-133.5 -47q-57 0 -115.5 33.5t-85.5 81.5q-117 -134 -272 -134q-117 0 -188.5 74t-71.5 195q0 57 8 141q14 147 14 236q0 77 -2 108q-4 63 -34 82z" />
<glyph unicode="v" horiz-adv-x="1010" d="M-14 807q65 114 225 170q41 14 63 14q78 0 78 -67q0 -17 -6 -80l-6 -64q-14 -148 -14 -239q0 -106 32 -219q37 -127 68 -127q34 0 68 86q51 130 51 264q0 24 -6 37q-76 29 -76 125q0 100 131 159q104 47 147 47q53 0 86 -83.5t33 -217.5q0 -176 -84 -348 q-49 -100 -105.5 -156.5t-143 -100.5t-140.5 -44q-81 0 -171 77t-136 187q-49 117 -49 342q0 60 2 76v33q0 96 -26 118q-9 7 -21 11z" />
<glyph unicode="w" horiz-adv-x="1397" d="M27 362q0 95 26 254q10 62 10 103q0 50 -28 92q48 23 126 99.5t150 76.5q117 0 117 -131v-10q0 -41 -14 -98q-16 -64 -60 -216q-30 -106 -30 -178q0 -37 16.5 -65.5t38.5 -28.5q52 0 94 105q47 117 47 227q0 40 -16 61q4 1 14 4q40 15 114.5 43.5t117.5 28.5q71 0 71 -61 q0 -9 -8 -37q-10 -37 -25 -172q-8 -79 -8 -101q0 -110 54 -110q47 0 84.5 97t37.5 218q0 188 -116 223q116 123 209 123q88 0 143 -83.5t55 -217.5q0 -150 -35 -284q-42 -162 -139 -256q-103 -101 -219 -101q-167 0 -254 199q-42 -83 -130.5 -139t-180.5 -56 q-126 0 -194 102.5t-68 288.5z" />
<glyph unicode="x" horiz-adv-x="924" d="M-41 795l8 8q81 80 156 115q45 20 84 20q71 0 116 -43q49 -46 97 -166l8 -20q96 235 258 235q95 0 125 -86l31 -86q-8 0 -16 1t-11 1q-91 0 -174 -104q-75 -95 -96 -162q0 -1 2 -4q42 -93 123 -199q63 -84 114 -84q33 0 62 29q10 -29 10 -68q0 -86 -57 -145.5t-140 -59.5 q-56 0 -106 35q-133 93 -182 224l-9 -17q-33 -66 -59 -113q-37 -65 -86 -94q-45 -26 -94 -26q-65 0 -107.5 45t-42.5 114q0 44 15 70q24 -25 61 -25q47 0 91 55q39 49 106 183l4 8q-4 8 -4 10q-4 6 -25 41l-47 80q-77 132 -84 141q-63 85 -131 87z" />
<glyph unicode="y" horiz-adv-x="1026" d="M14 811l15 10l110 76q90 61 156 61q82 0 82 -79q0 -36 -27 -177l-22 -118q-17 -89 -17 -181q0 -135 72 -135q60 0 103.5 90t45.5 220l3 104v14q0 104 -29 144q6 2 14 4q35 10 131 57q88 43 142 43q71 0 71 -65q0 -16 -10 -101q-20 -169 -20 -284q0 6 2 -72q2 -88 18 -307 q8 -112 8 -174q0 -410 -385 -410q-236 0 -246 164q-2 44 -10 63q-2 2 -4 6l8 5q61 43 115 43q37 0 82 -13q52 -14 72 -14q63 0 63 115q0 7 -2 44q-1 42 -2 76l-2 130q-108 -158 -264 -158q-114 0 -184 93.5t-70 246.5q0 52 16 270q4 55 4 111q0 54 -6.5 70.5t-32.5 27.5z " />
<glyph unicode="z" horiz-adv-x="950" d="M-55 78q0 37 39 92l96 137q66 86 196 258l99 131h-17l-143 -4q-125 0 -176 41q-64 51 -64 141q0 38 13 70q4 -3 10 -6q47 -16 203 -23l233 -10l203 4q81 2 102 4q27 3 60 15v-8q4 -27 4 -78q0 -47 -11 -72t-57 -82l-184 -229q-56 -79 -172 -242l-10 -14q20 -4 53 -4h6 q89 0 127 2q210 11 283 57l9 -31q9 -34 9 -67q0 -53 -31.5 -99.5t-79.5 -62.5q-54 -18 -122 -21q-203 -6 -256 -6q-261 0 -355 29q-67 21 -67 78z" />
<glyph unicode="{" horiz-adv-x="717" d="M55 682v82q103 29 146 99t43 210q0 72 -8 131l-21 148q-4 29 -4 55q0 152 100 225q90 66 316 66h35v-88q-168 -12 -168 -158q0 -16 18 -160q10 -79 10 -159q0 -182 -59 -270t-215 -140q147 -45 211.5 -151.5t64.5 -305.5q0 -73 -10 -145q-18 -129 -18 -178 q0 -146 166 -152v-86h-76q-205 0 -287 66q-86 68 -86 209q0 22 23 204q10 83 10 176q0 269 -191 322z" />
<glyph unicode="|" horiz-adv-x="696" d="M272 -55v1474h152v-1474h-152z" />
<glyph unicode="}" horiz-adv-x="717" d="M55 -209q166 6 166 152q0 49 -18 178q-10 72 -10 145q0 199 64.5 305.5t211.5 151.5q-157 52 -215.5 140t-58.5 270q0 80 10 159q18 144 18 162q0 144 -168 156v88h35q226 0 316 -66q100 -73 100 -225q0 -26 -4 -55l-21 -148q-8 -59 -8 -131q0 -140 43 -210t146 -99v-82 q-191 -53 -191 -324q0 -90 10 -174q23 -184 23 -204q0 -141 -86 -209q-82 -66 -285 -66h-78v86z" />
<glyph unicode="~" d="M88 586l98 96l-98 96l21 21l96 -97l96 97l21 -21l-99 -96l99 -96l-21 -19l-96 97l-96 -97z" />
<glyph unicode="&#xa0;" />
<glyph unicode="&#xa1;" horiz-adv-x="526" d="M55 -438q31 54 60.5 251t38.5 414l6 150q5 116 67 155l70 35q32 17 76 37l12 4q-2 -6 -4 -10q-2 -10 -2 -43v-18l2 -64q1 -34 8 -125q6 -69 17 -196l14 -224q4 -62 12 -135q10 -90 10 -100q0 -83 -69 -107q-62 -20 -215 -22q-34 0 -103 -2zM80 791q0 73 64.5 119 t168.5 46q72 0 115 -34.5t43 -92.5q0 -66 -69 -113.5t-164 -47.5q-158 0 -158 123z" />
<glyph unicode="&#xa2;" horiz-adv-x="936" d="M82 881q0 201 106 336.5t287 164.5v93q0 65 31 108l20 29l15 24l12 19l6 10q4 -12 4 -25q0 -28 -2 -49q-2 -8 -2 -55v-49v-103q119 -3 193.5 -65t74.5 -156q0 -75 -45.5 -123.5t-115.5 -48.5q-25 0 -60 15q4 16 4 20q0 70 -51 94v-528h14q83 0 179 88q43 40 61 74 q41 -24 41 -97q0 -110 -88.5 -196t-202.5 -86h-4v-297l-8 -41l-2 -27l-19 -20l-14 -21q-17 -11 -45 -28q0 14 2 18v143q0 31 1 62l1 31v184q-173 14 -283 154t-110 348zM387 864q0 -173 88 -246v494q-37 -20 -62.5 -92.5t-25.5 -155.5z" />
<glyph unicode="&#xa3;" horiz-adv-x="1225" d="M53 565q0 18 15 72q12 46 12 84v12q31 -6 51 -6q38 0 76 8q-33 95 -33 236q0 201 152 323.5t401 122.5q200 0 321 -72t121 -190q0 -151 -200 -151q-67 0 -97 18q2 10 2 22q0 57 -53 100.5t-123 43.5q-90 0 -147 -61t-57 -158q0 -86 22 -217q77 12 193 43q156 41 206 86 q-2 -19 -2 -41v-35q0 -19 2.5 -39t2.5 -23q0 -81 -48 -116q-39 -30 -198 -64q-103 -22 -154 -26v-9q4 -45 4 -53q0 -120 -55 -227h10l123 -19q41 -6 78 -6q118 0 236.5 39t181.5 98q20 -67 20 -122q0 -130 -92 -187q-107 -65 -342 -65q-89 0 -160 14l-231 47 q-101 21 -180 21h-15l25 174q98 16 98 215q0 39 -4 57q-3 0 -8 -1t-6 -1q-46 -6 -66 -6q-82 0 -82 59z" />
<glyph unicode="&#xa4;" horiz-adv-x="1536" d="M231 287l119 119q-96 134 -96 299q0 177 96 301l-117 112l117 119l115 -119q112 99 297 99q184 0 301 -99l117 119l114 -115l-118 -116q104 -124 104 -301q0 -178 -104 -299l116 -119l-112 -115l-121 123q-113 -98 -297 -98q-180 0 -299 94l-119 -119zM469 705 q0 -131 91 -218q86 -81 202 -81q120 0 207 81q92 87 92 218t-91 218q-87 83 -208 83q-116 0 -202 -83q-91 -88 -91 -218z" />
<glyph unicode="&#xa5;" horiz-adv-x="1280" d="M55 1194q149 170 256 170q54 0 90 -74q20 -39 66 -133q55 -117 67 -148t52 -135l35 -88l6 -18q7 14 57 100l98 170q117 202 193 287q55 61 112 61q50 0 138 -59q18 -13 55 -37q-12 -13 -59 -73l-105 -140q-45 -60 -106 -145q-201 -279 -283 -443l-6 -8q8 -2 16 -2 q80 0 131 45q2 -14 2 -26q0 -121 -141 -121h-6l4 -72h4q10 -2 8 -2q66 0 125 41q0 -5 1 -12t1 -10q0 -98 -123 -113h-6v-6q6 -49 15 -80q8 -22 8 -39q0 -46 -67 -80.5t-156 -34.5q-103 0 -103 72q0 2 4 39q2 4 4 34t7 89q-28 8 -56 8q-63 0 -104 -27v17q0 49 37.5 80.5 t95.5 31.5q22 0 37 -4l4 70q-46 6 -68 6q-57 0 -94 -18v16q0 96 121 96q4 0 45 -4l-6 19q-23 67 -76 194q-67 161 -164 326q-95 162 -166 180z" />
<glyph unicode="&#xa7;" d="M88 586l98 96l-98 96l21 21l96 -97l96 97l21 -21l-99 -96l99 -96l-21 -19l-96 97l-96 -97z" />
<glyph unicode="&#xa8;" horiz-adv-x="752" d="M55 1245q0 51 38.5 87t94.5 36q113 0 113 -100q0 -50 -41 -86.5t-96 -36.5q-109 0 -109 100zM451 1243q0 52 39 88.5t96 36.5q110 0 110 -100q0 -49 -40.5 -86t-94.5 -37q-110 0 -110 98z" />
<glyph unicode="&#xa9;" horiz-adv-x="1530" d="M55 678q0 298 207 506.5t502 208.5t503 -208t208 -503q0 -290 -207 -499.5t-494 -209.5q-299 0 -509 205.5t-210 499.5zM123 682q0 -263 186.5 -452t446.5 -189q270 0 460.5 185.5t190.5 451.5q0 269 -188 458t-455 189q-266 0 -453.5 -188t-187.5 -455zM410 643 q0 206 108.5 335.5t282.5 129.5q101 0 164 -36.5t63 -94.5q0 -64 -94 -115q-75 90 -154 90q-74 0 -119 -68t-45 -179q0 -146 58 -235t153 -89q129 0 228 82q-5 -91 -90.5 -157t-200.5 -66q-154 0 -254 114t-100 289z" />
<glyph unicode="&#xaa;" horiz-adv-x="539" d="M0 1081q0 131 77.5 226.5t182.5 95.5q61 0 109.5 -49t48.5 -111q0 -14 -17 -31h23q27 0 27 -16q0 -8 -3 -16.5t-10 -40.5q-8 -40 -8 -74q0 -90 55 -90q18 0 33 12q6 -10 6 -31q0 -100 -106 -100q-88 0 -111 82q-50 -80 -139 -80q-77 0 -122.5 60.5t-45.5 162.5zM156 1085 q0 -94 49 -94q53 0 69 127q6 42 8 49.5t9 12.5q-19 2 -19 20v6q2 6 2 17q0 49 -34 49t-59 -56.5t-25 -130.5z" />
<glyph unicode="&#xab;" horiz-adv-x="899" d="M14 506q0 32 39 67q154 141 217 265q88 -82 88 -148q0 -39 -26 -67l-49 -54q-47 -51 -47 -67q0 -12 22 -43q82 -115 135 -144l-8 -4q-10 -10 -57 -51q-21 -18 -60 -51q-20 -16 -41 -16q-31 0 -92 88q-121 175 -121 225zM383 506q0 30 41 67q156 143 215 265 q90 -84 90 -148q0 -14 -4 -31q-9 -20 -21.5 -34.5t-50.5 -55.5q-47 -50 -47 -67q0 -15 21 -43q79 -112 135 -144l-6 -4q-21 -20 -58 -51q-20 -18 -59 -51q-21 -16 -41 -16q-32 0 -92 88q-39 54 -106 169q-17 35 -17 56z" />
<glyph unicode="&#xac;" horiz-adv-x="1106" d="M109 520q11 107 38 172q26 61 72 74q37 10 92 10h543q39 0 73 6.5t70 24.5q-7 -18 -18 -94q-16 -84 -16 -291v-184q0 -38 6 -70q7 -37 24 -72q-26 9 -94 19q-104 15 -136 44t-32 150v238h-469q-91 0 -145 -25z" />
<glyph unicode="&#xad;" horiz-adv-x="731" d="M55 436q9 74 39 131q23 43 69 55q26 7 93 7h240q68 0 110 6q22 3 72 18q-10 -22 -19 -71q-12 -76 -47 -103q-28 -22 -147 -22h-258q-57 0 -107 -8q-20 -4 -45 -13z" />
<glyph unicode="&#xae;" horiz-adv-x="1264" d="M55 811q0 243 168 412.5t408 169.5q239 0 408 -169t169 -409q0 -235 -167.5 -405t-399.5 -170q-244 0 -415 166.5t-171 404.5zM127 815q0 -206 147.5 -355t350.5 -149q213 0 361.5 146t148.5 354q0 212 -147 360t-357 148q-208 0 -356 -147.5t-148 -356.5zM342 979 q6 156 238 156q133 0 211.5 -63t78.5 -171q0 -55 -33.5 -105t-80.5 -67q14 -6 30 -31l25 -45q25 -45 63 -45q15 0 31 6v-2q0 -112 -94 -112q-29 0 -51 12q-27 15 -92 109q-38 53 -107 88l-8 4q0 -46 8 -90.5t8 -55.5q0 -18 -6 -24q-8 -10 -47 -25.5t-55 -15.5q-25 0 -31 28 q-14 49 -14 185q0 24 -1 57.5t-1 42.5q0 88 10 191v6l-6 -2q-13 -5 -31 -11q-12 -4 -45 -20zM555 819q0 -1 3.5 -4.5t23.5 -7.5q41 -6 49 -6q40 0 67 27.5t27 68.5q0 55 -38.5 90t-98.5 35q-13 0 -25 -2v-4q-8 -74 -8 -178v-19z" />
<glyph unicode="&#xaf;" horiz-adv-x="584" d="M53 1204q0 111 148 111q21 0 53 -2q64 -4 133 -4q111 0 139 28q4 -16 4 -32q0 -119 -131 -119q-11 0 -168 6q-14 2 -41 2q-84 0 -133 -16q-4 28 -4 26z" />
<glyph unicode="&#x2c9;" horiz-adv-x="584" d="M53 1204q0 111 148 111q21 0 53 -2q64 -4 133 -4q111 0 139 28q4 -16 4 -32q0 -119 -131 -119q-11 0 -168 6q-14 2 -41 2q-84 0 -133 -16q-4 28 -4 26z" />
<glyph unicode="&#xb0;" horiz-adv-x="696" d="M49 1110q0 127 86.5 215t210.5 88q126 0 213.5 -86.5t87.5 -212.5q0 -124 -87 -211.5t-212 -87.5q-123 0 -211 87t-88 208zM195 1116q0 -64 44 -108.5t107 -44.5q65 0 109.5 43.5t44.5 107.5t-44.5 109t-107.5 45t-108 -44.5t-45 -107.5z" />
<glyph unicode="&#xb1;" horiz-adv-x="1106" d="M109 -27q12 110 38 174q25 59 72 74q26 8 92 8h504q58 0 111 9q39 6 71 24q-10 -31 -18 -96q-12 -100 -47 -137q-27 -29 -148 -29h-522q-100 0 -145 -23zM109 668q12 109 38 174q25 58 72 73q26 9 92 9h123v180q0 78 -22 145l-2 6q98 -8 172 -38q58 -25 73 -70 q11 -31 11 -92v-131h188q16 0 72 8q38 6 71 24q-10 -30 -18 -96q-12 -99 -47 -137q-27 -29 -148 -29h-118v-184q0 -38 6 -70q7 -36 24 -71q-26 8 -94 18q-104 15 -136 44t-32 151v112h-172q-100 0 -145 -22z" />
<glyph unicode="&#xb2;" horiz-adv-x="1212" d="M27 0v10q0 39 14 84q18 59 57 119q60 92 242 242q170 140 248 221q143 150 143 282q0 91 -55.5 149t-143.5 58q-118 0 -196.5 -78t-81.5 -198q-135 63 -135 201q0 144 117 222.5t333 78.5q254 0 380 -115.5t126 -296.5q0 -188 -147 -340q-85 -88 -336 -285 q-106 -82 -150 -145l19 2l51 2q69 3 131 -2q105 -8 156 -8q236 0 278 98q27 -82 27 -139q0 -207 -316 -207q-89 0 -292 29l-146 20q-131 19 -194 19q-64 0 -129 -23z" />
<glyph unicode="&#xb3;" horiz-adv-x="1124" d="M27 319q0 67 45 134l10 -9l53 -59q147 -164 340 -164q96 0 155.5 57.5t59.5 149.5q0 211 -360 211q-58 0 -92 -4v8q-9 60 -9 92q0 36 13 51l45 43l100 101l70 71q32 34 69 78l54 66h-13l-143 -19q-80 -10 -150 -10q-204 0 -204 115q0 36 16 78q10 21 23 59q0 1 2 6 q132 -24 376 -24q108 0 158 4l174 14q73 6 92 9t47 14q-8 -41 -8 -64q0 -9 2 -27.5t2 -27.5q0 -50 -67 -119q-20 -19 -58 -59l-77 -93q-18 -20 -86 -96q-38 -41 -76 -86h20q169 0 287.5 -116.5t118.5 -282.5q0 -198 -136.5 -322.5t-353.5 -124.5q-221 0 -360 96.5 t-139 249.5z" />
<glyph unicode="&#xb4;" horiz-adv-x="535" d="M55 1227q29 5 56 20q48 29 121 89q37 30 63 30q13 0 33 -6q11 -4 135 -66l16 -8q-55 -11 -123 -65q-97 -78 -149 -78q-36 0 -55 10q-40 21 -97 74z" />
<glyph unicode="&#xb6;" horiz-adv-x="1206" d="M68 934q0 245 182 362q108 70 323 70h566v-180h-107v-1569h-172v1569h-182v-1569h-174v905q-86 0 -150 15q-130 29 -208 137t-78 260zM254 934q0 -117 60 -181.5t167 -64.5h23v498q-72 -3 -105 -12q-66 -20 -105.5 -85t-39.5 -155z" />
<glyph unicode="&#xb7;" horiz-adv-x="637" d="M123 680q0 67 70 115.5t167 48.5q71 0 112.5 -34t41.5 -91q0 -74 -64.5 -119t-168.5 -45q-71 0 -114.5 34t-43.5 91z" />
<glyph unicode="&#x2219;" horiz-adv-x="637" d="M123 680q0 67 70 115.5t167 48.5q71 0 112.5 -34t41.5 -91q0 -74 -64.5 -119t-168.5 -45q-71 0 -114.5 34t-43.5 91z" />
<glyph unicode="&#xb8;" horiz-adv-x="465" d="M55 -322q0 19 6 29q43 -18 103 -18q98 0 98 57q0 49 -90 49q-6 0 -43 -4l57 225h127l-32 -151h22q109 0 109 -98q0 -77 -64 -129t-158 -52q-135 0 -135 92z" />
<glyph unicode="&#xb9;" horiz-adv-x="664" d="M0 932q0 42 14 106q13 56 13 82q0 12 -7 27q69 3 267 158q130 102 172 102q82 0 82 -94q0 -30 -25 -176q-11 -69 -29 -176q-22 -160 -22 -338q0 8 2 -78q2 -69 20 -234q7 -40 17 -108l8 -58q4 -28 4 -32q0 -36 -55 -70q-143 -88 -217 -88q-48 0 -68 43q-23 52 -26 195 q-3 96 -3 299q0 170 7 247q10 129 10 131v13q-48 -29 -98 -29q-28 0 -47 22.5t-19 55.5z" />
<glyph unicode="&#xba;" horiz-adv-x="647" d="M14 1124q0 66 26 123t62 72l-8 27q8 9 56 34q53 23 102 23q109 0 176.5 -78.5t67.5 -204.5t-65 -200t-175 -74q-106 0 -174 78.5t-68 199.5zM182 1161q0 -81 27 -135.5t67 -54.5q66 0 66 106q0 80 -27 135.5t-67 55.5q-66 0 -66 -107z" />
<glyph unicode="&#xbb;" horiz-adv-x="831" d="M27 315q36 20 110 111q47 58 47 76q0 16 -47 67q-21 24 -49.5 54.5t-28.5 66.5q0 64 91 148q63 -124 217 -265q39 -35 39 -67q0 -42 -72 -150q-43 -66 -112 -154q-11 -9 -29 -9q-14 0 -25 4q-4 1 -76 63l-59 51zM397 315q46 28 111 111q47 60 47 76t-47 67 q-21 23 -49.5 55t-28.5 66q0 64 90 148q65 -127 215 -265q41 -37 41 -67q0 -40 -71 -150q-43 -66 -112 -154q-12 -9 -30 -9q-12 0 -24 4q-21 12 -78 63l-58 51z" />
<glyph unicode="&#xbc;" horiz-adv-x="3082" d="M1915 530q-1 39 57 115l93 121q87 115 133 170q15 18 145 170l100 117q95 106 113 147q21 -4 39 -4q56 0 178 39q32 10 55 10q45 0 45 -43q0 -25 -2 -39q-1 -10 -10 -84q-8 -63 -24 -198q-21 -198 -21 -422v-15q23 3 47 15q13 6 41 18q6 4 23 4q32 0 32 -55 q0 -143 -2 -155q-14 -91 -90 -91q-28 0 -61 8v-14q0 -174 18 -272q4 -22 4 -25t1 -10t1 -10q0 -26 -24 -35q-18 -7 -162 -21q-37 -3 -74 -10q-45 -4 -55 -4q-49 0 -49 41q0 19 10 51q20 63 31 152q3 30 8 125q2 42 2 43v12h-8q-116 0 -270 -12q-45 -4 -138 -9l-98 -2l-27 -2 q-40 -3 -51 16q-7 11 -8 54zM2216 598l14 2q43 0 142 4l35 2q73 2 104 2h6v10l4 181v205l-6 -7l-78 -96l-147 -194q-40 -53 -74 -109zM719 6q6 6 13 14q31 42 65 95q6 11 57 86l768 1106q13 16 33 43q27 32 72 32q23 0 65 -10q52 -12 56 -12q11 -2 12 -2l-6 -10l-55 -78 l-60 -88l-700 -1030l-45 -68q-14 -21 -41 -53q-41 -49 -90 -49q-36 0 -66 8q-51 14 -78 16zM0 932q0 42 14 106q13 56 13 82q0 12 -7 27q69 3 267 158q130 102 172 102q82 0 82 -94q0 -30 -25 -176q-11 -69 -29 -176q-22 -160 -22 -338q0 8 2 -78q2 -69 20 -234 q7 -40 17 -108l8 -58q4 -28 4 -32q0 -36 -55 -70q-143 -88 -217 -88q-48 0 -68 43q-23 52 -26 195q-3 96 -3 299q0 170 7 247q10 129 10 131v13q-48 -29 -98 -29q-28 0 -47 22.5t-19 55.5z" />
<glyph unicode="&#xbd;" horiz-adv-x="3127" d="M1942 0v10q0 39 14 84q18 59 57 119q60 92 242 242q170 140 248 221q143 150 143 282q0 91 -55.5 149t-143.5 58q-118 0 -196.5 -78t-81.5 -198q-135 63 -135 201q0 144 117 222.5t333 78.5q254 0 380 -115.5t126 -296.5q0 -188 -147 -340q-85 -88 -336 -285 q-106 -82 -150 -145l19 2l51 2q69 3 131 -2q105 -8 156 -8q236 0 278 98q27 -82 27 -139q0 -207 -316 -207q-89 0 -292 29l-146 20q-131 19 -194 19q-64 0 -129 -23zM719 6q6 6 13 14q31 42 65 95q6 11 57 86l768 1106q13 16 33 43q27 32 72 32q23 0 65 -10q52 -12 56 -12 q11 -2 12 -2l-6 -10l-55 -78l-60 -88l-700 -1030l-45 -68q-14 -21 -41 -53q-41 -49 -90 -49q-36 0 -66 8q-51 14 -78 16zM0 932q0 42 14 106q13 56 13 82q0 12 -7 27q69 3 267 158q130 102 172 102q82 0 82 -94q0 -30 -25 -176q-11 -69 -29 -176q-22 -160 -22 -338 q0 8 2 -78q2 -69 20 -234q7 -40 17 -108l8 -58q4 -28 4 -32q0 -36 -55 -70q-143 -88 -217 -88q-48 0 -68 43q-23 52 -26 195q-3 96 -3 299q0 170 7 247q10 129 10 131v13q-48 -29 -98 -29q-28 0 -47 22.5t-19 55.5z" />
<glyph unicode="&#xbe;" horiz-adv-x="3542" d="M2375 530q-1 39 57 115l93 121q87 115 133 170q15 18 145 170l100 117q95 106 113 147q21 -4 39 -4q56 0 178 39q32 10 55 10q45 0 45 -43q0 -25 -2 -39q-1 -10 -10 -84q-8 -63 -24 -198q-21 -198 -21 -422v-15q23 3 47 15q13 6 41 18q6 4 23 4q32 0 32 -55 q0 -143 -2 -155q-14 -91 -90 -91q-28 0 -61 8v-14q0 -174 18 -272q4 -22 4 -25t1 -10t1 -10q0 -26 -24 -35q-18 -7 -162 -21q-37 -3 -74 -10q-45 -4 -55 -4q-49 0 -49 41q0 19 10 51q20 63 31 152q3 30 8 125q2 42 2 43v12h-8q-116 0 -270 -12q-45 -4 -138 -9l-98 -2l-27 -2 q-40 -3 -51 16q-7 11 -8 54zM2676 598l14 2q43 0 142 4l35 2q73 2 104 2h6v10l4 181v205l-6 -7l-78 -96l-147 -194q-40 -53 -74 -109zM1179 6q6 6 13 14q31 42 65 95q6 11 57 86l768 1106q13 16 33 43q27 32 72 32q23 0 65 -10q52 -12 56 -12q11 -2 12 -2l-6 -10l-55 -78 l-60 -88l-700 -1030l-45 -68q-14 -21 -41 -53q-41 -49 -90 -49q-36 0 -66 8q-51 14 -78 16zM27 319q0 67 45 134l10 -9l53 -59q147 -164 340 -164q96 0 155.5 57.5t59.5 149.5q0 211 -360 211q-58 0 -92 -4v8q-9 60 -9 92q0 36 13 51l45 43l100 101l70 71q32 34 69 78l54 66 h-13l-143 -19q-80 -10 -150 -10q-204 0 -204 115q0 36 16 78q10 21 23 59q0 1 2 6q132 -24 376 -24q108 0 158 4l174 14q73 6 92 9t47 14q-8 -41 -8 -64q0 -9 2 -27.5t2 -27.5q0 -50 -67 -119q-20 -19 -58 -59l-77 -93q-18 -20 -86 -96q-38 -41 -76 -86h20 q169 0 287.5 -116.5t118.5 -282.5q0 -198 -136.5 -322.5t-353.5 -124.5q-221 0 -360 96.5t-139 249.5z" />
<glyph unicode="&#xbf;" horiz-adv-x="926" d="M55 -141q0 87 81.5 156t269.5 141q174 66 174 131q0 29 -32.5 48t-80.5 19q-54 0 -100 -24l4 12q88 176 188 176q39 0 109 -51l77 -57q115 -85 115 -156q0 -74 -65 -125q-38 -29 -88 -55q-34 -18 -97 -47q-148 -70 -200 -129q-45 -51 -45 -105q0 -63 77 -63q82 0 144 92 q30 45 41 55q33 31 121 43q68 10 92 17q4 0 8 2l4 -13q18 -55 18 -125q0 -101 -113 -170t-280 -69q-172 0 -297 87.5t-125 209.5zM387 791q0 73 64.5 119t169.5 46q71 0 114 -34.5t43 -92.5q0 -66 -69 -113.5t-164 -47.5q-158 0 -158 123z" />
<glyph unicode="&#xc0;" horiz-adv-x="1366" d="M27 31q0 34 28 98q49 109 129 299l211 535q20 50 60 174q23 72 28 106q2 11 2 19l4 16v8q0 6 -2 14h7q27 0 139 41q21 8 102 35q43 15 66 15q31 0 48 -28t40 -118q35 -139 203 -551q143 -352 215 -485q32 -61 32 -90q0 -34 -36 -64q-47 -38 -112.5 -68t-100.5 -30 q-54 0 -115 145l-92 220q-6 14 -15.5 32t-25.5 25q-24 10 -127 10q-148 0 -271 -31l-8 -2l-41 -123l-33 -106l-8 -35q-12 -51 -87 -90t-161 -39q-79 0 -79 68zM530 606q99 19 177 19h18l35 -2h16v14l-57 151l-64 205q-2 -10 -4 -22q-11 -32 -57 -174l-57 -179zM428 1654 l17 11q108 67 164 67q36 0 81 -39q65 -55 109 -80q19 -10 53 -18l-14 -12q-86 -74 -141 -74q-42 0 -146 80q-69 53 -123 65z" />
<glyph unicode="&#xc1;" horiz-adv-x="1366" d="M27 31q0 34 28 98q49 109 129 299l211 535q20 50 60 174q23 72 28 106q2 11 2 19l4 16v8q0 6 -2 14h7q27 0 139 41q21 8 102 35q43 15 66 15q31 0 48 -28t40 -118q35 -139 203 -551q143 -352 215 -485q32 -61 32 -90q0 -34 -36 -64q-47 -38 -112.5 -68t-100.5 -30 q-54 0 -115 145l-92 220q-6 14 -15.5 32t-25.5 25q-24 10 -127 10q-148 0 -271 -31l-8 -2l-41 -123l-33 -106l-8 -35q-12 -51 -87 -90t-161 -39q-79 0 -79 68zM530 606q99 19 177 19h18l35 -2h16v14l-57 151l-64 205q-2 -10 -4 -22q-11 -32 -57 -174l-57 -179zM479 1585 q29 5 56 20q48 29 121 89q37 30 63 30q13 0 33 -6q11 -4 135 -66l16 -8q-55 -11 -123 -65q-97 -78 -149 -78q-36 0 -55 10q-40 21 -97 74z" />
<glyph unicode="&#xc2;" horiz-adv-x="1366" d="M27 31q0 34 28 98q49 109 129 299l211 535q20 50 60 174q23 72 28 106q2 11 2 19l4 16v8q0 6 -2 14h7q27 0 139 41q21 8 102 35q43 15 66 15q31 0 48 -28t40 -118q35 -139 203 -551q143 -352 215 -485q32 -61 32 -90q0 -34 -36 -64q-47 -38 -112.5 -68t-100.5 -30 q-54 0 -115 145l-92 220q-6 14 -15.5 32t-25.5 25q-24 10 -127 10q-148 0 -271 -31l-8 -2l-41 -123l-33 -106l-8 -35q-12 -51 -87 -90t-161 -39q-79 0 -79 68zM530 606q99 19 177 19h18l35 -2h16v14l-57 151l-64 205q-2 -10 -4 -22q-11 -32 -57 -174l-57 -179zM444 1523 q71 52 162 166q14 18 25 25q20 10 120 10q24 0 39 -18l64 -74q59 -69 106 -94q-13 -5 -57 -29q-61 -37 -84 -37q-37 0 -90 62q-28 31 -43 47l-6 8q-6 -6 -6 -8q-21 -25 -52 -56q-49 -49 -77 -49q-15 0 -29 8l-53 31z" />
<glyph unicode="&#xc3;" horiz-adv-x="1366" d="M27 31q0 34 28 98q49 109 129 299l211 535q20 50 60 174q23 72 28 106q2 11 2 19l4 16v8q0 6 -2 14h7q27 0 139 41q21 8 102 35q43 15 66 15q31 0 48 -28t40 -118q35 -139 203 -551q143 -352 215 -485q32 -61 32 -90q0 -34 -36 -64q-47 -38 -112.5 -68t-100.5 -30 q-54 0 -115 145l-92 220q-6 14 -15.5 32t-25.5 25q-24 10 -127 10q-148 0 -271 -31l-8 -2l-41 -123l-33 -106l-8 -35q-12 -51 -87 -90t-161 -39q-79 0 -79 68zM530 606q99 19 177 19h18l35 -2h16v14l-57 151l-64 205q-2 -10 -4 -22q-11 -32 -57 -174l-57 -179zM415 1595 q47 129 191 129q36 0 104.5 -18.5t110.5 -18.5q81 0 119 35v-10q0 -66 -47.5 -108t-120.5 -42q-56 0 -111 17l-82 24q-34 10 -76 10q-53 0 -88 -18z" />
<glyph unicode="&#xc4;" horiz-adv-x="1366" d="M27 31q0 34 28 98q49 109 129 299l211 535q20 50 60 174q23 72 28 106q2 11 2 19l4 16v8q0 6 -2 14h7q27 0 139 41q21 8 102 35q43 15 66 15q31 0 48 -28t40 -118q35 -139 203 -551q143 -352 215 -485q32 -61 32 -90q0 -34 -36 -64q-47 -38 -112.5 -68t-100.5 -30 q-54 0 -115 145l-92 220q-6 14 -15.5 32t-25.5 25q-24 10 -127 10q-148 0 -271 -31l-8 -2l-41 -123l-33 -106l-8 -35q-12 -51 -87 -90t-161 -39q-79 0 -79 68zM530 606q99 19 177 19h18l35 -2h16v14l-57 151l-64 205q-2 -10 -4 -22q-11 -32 -57 -174l-57 -179zM387 1603 q0 51 38.5 87t94.5 36q113 0 113 -100q0 -50 -41 -86.5t-96 -36.5q-109 0 -109 100zM783 1601q0 52 39 88.5t96 36.5q110 0 110 -100q0 -49 -40.5 -86t-94.5 -37q-110 0 -110 98z" />
<glyph unicode="&#xc5;" horiz-adv-x="1366" d="M27 31q0 34 28 98q49 109 129 299l211 535q20 50 60 174q23 72 28 106q2 11 2 19l4 16v8q0 6 -2 14h7q27 0 139 41q21 8 102 35q43 15 66 15q31 0 48 -28t40 -118q35 -139 203 -551q143 -352 215 -485q32 -61 32 -90q0 -34 -36 -64q-47 -38 -112.5 -68t-100.5 -30 q-54 0 -115 145l-92 220q-6 14 -15.5 32t-25.5 25q-24 10 -127 10q-148 0 -271 -31l-8 -2l-41 -123l-33 -106l-8 -35q-12 -51 -87 -90t-161 -39q-79 0 -79 68zM530 606q99 19 177 19h18l35 -2h16v14l-57 151l-64 205q-2 -10 -4 -22q-11 -32 -57 -174l-57 -179zM526 1620 q0 75 49.5 125.5t122.5 50.5t123.5 -51t50.5 -123q0 -73 -49.5 -122.5t-122.5 -49.5q-75 0 -124.5 48t-49.5 122zM618 1622q0 -34 23 -57t55 -23q34 0 57 23t23 57q0 32 -23.5 55.5t-54.5 23.5q-33 0 -56.5 -23t-23.5 -56z" />
<glyph unicode="&#xc6;" horiz-adv-x="1853" d="M-27 33q0 45 35 94l332 459l137 202l148 234q146 231 166 313q32 -6 79 -6h15q178 0 588 51q254 32 335 70q4 -29 4 -64q0 -130 -49 -178q-45 -44 -186 -57l-221 -21q-155 -14 -178 -14h-13l-2 -18l-6 -166v-217l14 2q219 31 293 53q56 17 103 53v-8q0 -20 1 -51t1 -43 q0 -109 -56 -154q-26 -21 -53 -28q-43 -17 -99 -25q-152 -21 -198 -29l-12 -2v-114q0 -95 59 -127q21 -12 50 -19q79 -6 145 -6q128 0 226 28t124 72q6 -8 6 -12q35 -77 35 -155q0 -115 -180 -152q-140 -29 -279 -29q-350 0 -460 111q-41 41 -51 128q-3 27 -3 144q0 78 2 88 q0 2 2 11l-10 -2q-2 -1 -137 -23l-123 -20l-12 -5q-3 -2 -5.5 -5.5t-2.5 -4.5q-15 -25 -60 -104q-84 -151 -137 -228q-38 -55 -89 -75.5t-151 -20.5q-127 0 -127 70zM674 641h8q47 5 139 21l8 2l2 8l7 114q4 77 4 121v23l-11 -15l-79 -141z" />
<glyph unicode="&#xc7;" horiz-adv-x="1157" d="M109 625q0 342 181.5 558t469.5 216q171 0 275 -59.5t104 -157.5q0 -112 -156 -193q-123 150 -254 150q-124 0 -199 -113.5t-75 -300.5q0 -243 96 -391t256 -148q90 0 197.5 38.5t181.5 97.5q-6 -140 -142.5 -252t-304.5 -115l-26 -133q6 4 16 4q113 0 113 -100 q0 -77 -63.5 -130t-155.5 -53q-138 0 -138 97q0 16 7 26q34 -20 92 -20q110 0 110 59q0 47 -92 47q-24 0 -43 -2l55 209q-90 13 -170 55q-335 179 -335 611z" />
<glyph unicode="&#xc8;" horiz-adv-x="1122" d="M41 1073v23q0 55 20 106q23 57 62 84q44 31 111 43t235 19q89 3 217 14l195 16q118 10 150 18.5t69 39.5q12 -25 12 -60q0 -69 -26.5 -124.5t-90 -77.5t-217.5 -29q-83 0 -295 -21l-12 -2l-2 -12l-14 -147l-9 -172l15 2l80 12q76 12 125 24q135 36 186 62l6 6 q31 -28 31 -96q0 -69 -37 -121q-53 -74 -195 -98l-145 -26q-35 -6 -59 -9q-4 -2 -13 -2v-15q0 -16 -2 -48.5t-2 -49.5q0 -138 40 -176.5t183 -38.5q271 0 379 102q47 -73 47 -141q0 -209 -444 -209q-93 0 -172 6q-205 16 -291 99q-59 56 -63 176q-2 55 -2 104q0 31 2 82 t2 72v12h-4q-39 0 -39 45v27q10 89 18 106q5 16 21 19v10q4 34 10 182q4 105 10 170l2 8q-41 0 -94 -14zM354 1654l17 11q108 67 164 67q36 0 81 -39q65 -55 109 -80q19 -10 53 -18l-14 -12q-86 -74 -141 -74q-42 0 -146 80q-69 53 -123 65z" />
<glyph unicode="&#xc9;" horiz-adv-x="1122" d="M41 1073v23q0 55 20 106q23 57 62 84q44 31 111 43t235 19q89 3 217 14l195 16q118 10 150 18.5t69 39.5q12 -25 12 -60q0 -69 -26.5 -124.5t-90 -77.5t-217.5 -29q-83 0 -295 -21l-12 -2l-2 -12l-14 -147l-9 -172l15 2l80 12q76 12 125 24q135 36 186 62l6 6 q31 -28 31 -96q0 -69 -37 -121q-53 -74 -195 -98l-145 -26q-35 -6 -59 -9q-4 -2 -13 -2v-15q0 -16 -2 -48.5t-2 -49.5q0 -138 40 -176.5t183 -38.5q271 0 379 102q47 -73 47 -141q0 -209 -444 -209q-93 0 -172 6q-205 16 -291 99q-59 56 -63 176q-2 55 -2 104q0 31 2 82 t2 72v12h-4q-39 0 -39 45v27q10 89 18 106q5 16 21 19v10q4 34 10 182q4 105 10 170l2 8q-41 0 -94 -14zM440 1585q29 5 56 20q48 29 121 89q37 30 63 30q13 0 33 -6q11 -4 135 -66l16 -8q-55 -11 -123 -65q-97 -78 -149 -78q-36 0 -55 10q-40 21 -97 74z" />
<glyph unicode="&#xca;" horiz-adv-x="1122" d="M41 1073v23q0 55 20 106q23 57 62 84q44 31 111 43t235 19q89 3 217 14l195 16q118 10 150 18.5t69 39.5q12 -25 12 -60q0 -69 -26.5 -124.5t-90 -77.5t-217.5 -29q-83 0 -295 -21l-12 -2l-2 -12l-14 -147l-9 -172l15 2l80 12q76 12 125 24q135 36 186 62l6 6 q31 -28 31 -96q0 -69 -37 -121q-53 -74 -195 -98l-145 -26q-35 -6 -59 -9q-4 -2 -13 -2v-15q0 -16 -2 -48.5t-2 -49.5q0 -138 40 -176.5t183 -38.5q271 0 379 102q47 -73 47 -141q0 -209 -444 -209q-93 0 -172 6q-205 16 -291 99q-59 56 -63 176q-2 55 -2 104q0 31 2 82 t2 72v12h-4q-39 0 -39 45v27q10 89 18 106q5 16 21 19v10q4 34 10 182q4 105 10 170l2 8q-41 0 -94 -14zM364 1523q71 52 162 166q14 18 25 25q20 10 120 10q24 0 39 -18l64 -74q59 -69 106 -94q-13 -5 -57 -29q-61 -37 -84 -37q-37 0 -90 62q-28 31 -43 47l-6 8 q-6 -6 -6 -8q-21 -25 -52 -56q-49 -49 -77 -49q-15 0 -29 8l-53 31z" />
<glyph unicode="&#xcb;" horiz-adv-x="1122" d="M41 1073v23q0 55 20 106q23 57 62 84q44 31 111 43t235 19q89 3 217 14l195 16q118 10 150 18.5t69 39.5q12 -25 12 -60q0 -69 -26.5 -124.5t-90 -77.5t-217.5 -29q-83 0 -295 -21l-12 -2l-2 -12l-14 -147l-9 -172l15 2l80 12q76 12 125 24q135 36 186 62l6 6 q31 -28 31 -96q0 -69 -37 -121q-53 -74 -195 -98l-145 -26q-35 -6 -59 -9q-4 -2 -13 -2v-15q0 -16 -2 -48.5t-2 -49.5q0 -138 40 -176.5t183 -38.5q271 0 379 102q47 -73 47 -141q0 -209 -444 -209q-93 0 -172 6q-205 16 -291 99q-59 56 -63 176q-2 55 -2 104q0 31 2 82 t2 72v12h-4q-39 0 -39 45v27q10 89 18 106q5 16 21 19v10q4 34 10 182q4 105 10 170l2 8q-41 0 -94 -14zM297 1603q0 51 38.5 87t94.5 36q113 0 113 -100q0 -50 -41 -86.5t-96 -36.5q-109 0 -109 100zM693 1601q0 52 39 88.5t96 36.5q110 0 110 -100q0 -49 -40.5 -86 t-94.5 -37q-110 0 -110 98z" />
<glyph unicode="&#xcc;" horiz-adv-x="616" d="M137 365l2 237l6 272q2 65 9 201l8 178q0 52 -6 78h14q49 8 156 39q64 19 108 19q74 0 74 -72q0 -30 -4 -62l-15 -110q-38 -300 -38 -637q0 -59 28 -404q2 -28 2 -24q0 -35 -43 -49q-191 -62 -223 -62q-46 0 -61 63q-6 25 -9 101zM96 1654l17 11q108 67 164 67 q36 0 81 -39q65 -55 109 -80q19 -10 53 -18l-14 -12q-86 -74 -141 -74q-42 0 -146 80q-69 53 -123 65z" />
<glyph unicode="&#xcd;" horiz-adv-x="616" d="M137 365l2 237l6 272q2 65 9 201l8 178q0 52 -6 78h14q49 8 156 39q64 19 108 19q74 0 74 -72q0 -30 -4 -62l-15 -110q-38 -300 -38 -637q0 -59 28 -404q2 -28 2 -24q0 -35 -43 -49q-191 -62 -223 -62q-46 0 -61 63q-6 25 -9 101zM151 1585q29 5 56 20q48 29 121 89 q37 30 63 30q13 0 33 -6q11 -4 135 -66l16 -8q-55 -11 -123 -65q-97 -78 -149 -78q-36 0 -55 10q-40 21 -97 74z" />
<glyph unicode="&#xce;" horiz-adv-x="616" d="M137 365l2 237l6 272q2 65 9 201l8 178q0 52 -6 78h14q49 8 156 39q64 19 108 19q74 0 74 -72q0 -30 -4 -62l-15 -110q-38 -300 -38 -637q0 -59 28 -404q2 -28 2 -24q0 -35 -43 -49q-191 -62 -223 -62q-46 0 -61 63q-6 25 -9 101zM96 1523q71 52 162 166q14 18 25 25 q20 10 120 10q24 0 39 -18l64 -74q59 -69 106 -94q-13 -5 -57 -29q-61 -37 -84 -37q-37 0 -90 62q-28 31 -43 47l-6 8q-6 -6 -6 -8q-21 -25 -52 -56q-49 -49 -77 -49q-15 0 -29 8l-53 31z" />
<glyph unicode="&#xcf;" horiz-adv-x="616" d="M137 365l2 237l6 272q2 65 9 201l8 178q0 52 -6 78h14q49 8 156 39q64 19 108 19q74 0 74 -72q0 -30 -4 -62l-15 -110q-38 -300 -38 -637q0 -59 28 -404q2 -28 2 -24q0 -35 -43 -49q-191 -62 -223 -62q-46 0 -61 63q-6 25 -9 101zM4 1603q0 51 38.5 87t94.5 36 q113 0 113 -100q0 -50 -41 -86.5t-96 -36.5q-109 0 -109 100zM400 1601q0 52 39 88.5t96 36.5q110 0 110 -100q0 -49 -40.5 -86t-94.5 -37q-110 0 -110 98z" />
<glyph unicode="&#xd1;" horiz-adv-x="1305" d="M123 1288q34 14 133 72q80 47 129 47t86 -54.5t88 -201.5q75 -217 221 -494q52 -98 92 -143q2 27 5 131q1 136 6 223q8 162 8 209q0 113 -33 178h14q48 7 111 52q104 73 150 73q63 0 63 -71q0 -11 -6 -60q-43 -340 -43 -737q0 -114 2 -150l8 -141q4 -62 8 -92.5t4 -36.5 q0 -41 -65 -63q-38 -13 -80.5 -29t-65.5 -16q-62 0 -149 102q-188 221 -317 446q-28 48 -76 148v-25q0 -103 4 -182q6 -127 41 -283q10 -46 10 -63q0 -51 -43 -94q-82 -82 -158 -82q-38 0 -61 22q-64 62 -64 488q0 75 8.5 276.5t8.5 249.5q0 236 -39 301zM415 1595 q47 129 191 129q36 0 104.5 -18.5t110.5 -18.5q81 0 119 35v-10q0 -66 -47.5 -108t-120.5 -42q-56 0 -111 17l-82 24q-34 10 -76 10q-53 0 -88 -18z" />
<glyph unicode="&#xd2;" horiz-adv-x="1419" d="M109 692q0 196 84 375q36 79 56 100t62 29q-12 12 -12 29q0 69 119 123.5t268 54.5q280 0 445 -194.5t165 -524.5q0 -327 -162.5 -529t-426.5 -202q-271 0 -434.5 203t-163.5 536zM442 672q0 -237 72.5 -374.5t198.5 -137.5q123 0 195.5 137t72.5 369q0 230 -73 366.5 t-197 136.5q-122 0 -195.5 -136t-73.5 -361zM428 1654l17 11q108 67 164 67q36 0 81 -39q65 -55 109 -80q19 -10 53 -18l-14 -12q-86 -74 -141 -74q-42 0 -146 80q-69 53 -123 65z" />
<glyph unicode="&#xd3;" horiz-adv-x="1419" d="M109 692q0 196 84 375q36 79 56 100t62 29q-12 12 -12 29q0 69 119 123.5t268 54.5q280 0 445 -194.5t165 -524.5q0 -327 -162.5 -529t-426.5 -202q-271 0 -434.5 203t-163.5 536zM442 672q0 -237 72.5 -374.5t198.5 -137.5q123 0 195.5 137t72.5 369q0 230 -73 366.5 t-197 136.5q-122 0 -195.5 -136t-73.5 -361zM520 1565q29 5 56 20q48 29 121 89q37 30 63 30q13 0 33 -6q11 -4 135 -66l16 -8q-55 -11 -123 -65q-97 -78 -149 -78q-36 0 -55 10q-40 21 -97 74z" />
<glyph unicode="&#xd4;" horiz-adv-x="1419" d="M109 692q0 196 84 375q36 79 56 100t62 29q-12 12 -12 29q0 69 119 123.5t268 54.5q280 0 445 -194.5t165 -524.5q0 -327 -162.5 -529t-426.5 -202q-271 0 -434.5 203t-163.5 536zM442 672q0 -237 72.5 -374.5t198.5 -137.5q123 0 195.5 137t72.5 369q0 230 -73 366.5 t-197 136.5q-122 0 -195.5 -136t-73.5 -361zM444 1523q71 52 162 166q14 18 25 25q20 10 120 10q24 0 39 -18l64 -74q59 -69 106 -94q-13 -5 -57 -29q-61 -37 -84 -37q-37 0 -90 62q-28 31 -43 47l-6 8q-6 -6 -6 -8q-21 -25 -52 -56q-49 -49 -77 -49q-15 0 -29 8l-53 31z " />
<glyph unicode="&#xd5;" horiz-adv-x="1419" d="M109 692q0 196 84 375q36 79 56 100t62 29q-12 12 -12 29q0 69 119 123.5t268 54.5q280 0 445 -194.5t165 -524.5q0 -327 -162.5 -529t-426.5 -202q-271 0 -434.5 203t-163.5 536zM442 672q0 -237 72.5 -374.5t198.5 -137.5q123 0 195.5 137t72.5 369q0 230 -73 366.5 t-197 136.5q-122 0 -195.5 -136t-73.5 -361zM434 1595q47 129 191 129q36 0 104.5 -18.5t110.5 -18.5q81 0 119 35v-10q0 -66 -47.5 -108t-120.5 -42q-56 0 -111 17l-82 24q-34 10 -76 10q-53 0 -88 -18z" />
<glyph unicode="&#xd6;" horiz-adv-x="1419" d="M109 692q0 196 84 375q36 79 56 100t62 29q-12 12 -12 29q0 69 119 123.5t268 54.5q280 0 445 -194.5t165 -524.5q0 -327 -162.5 -529t-426.5 -202q-271 0 -434.5 203t-163.5 536zM442 672q0 -237 72.5 -374.5t198.5 -137.5q123 0 195.5 137t72.5 369q0 230 -73 366.5 t-197 136.5q-122 0 -195.5 -136t-73.5 -361zM393 1603q0 51 38.5 87t94.5 36q113 0 113 -100q0 -50 -41 -86.5t-96 -36.5q-109 0 -109 100zM789 1601q0 52 39 88.5t96 36.5q110 0 110 -100q0 -49 -40.5 -86t-94.5 -37q-110 0 -110 98z" />
<glyph unicode="&#xd8;" horiz-adv-x="1362" d="M82 -55q35 31 78 96l35 53l49 70q-156 189 -156 522q0 181 62 338.5t139 171.5q-10 13 -10 29q0 69 119 123.5t270 54.5q219 0 348 -111l28 43q17 24 39 58q9 12 21 22q24 23 70 23q-3 0 102 -6l4 -2l-4 -5q-10 -12 -21 -22q-18 -19 -71 -98l-70 -105q160 -185 160 -524 q0 -321 -163.5 -522t-424.5 -201q-186 0 -346 113l-25 -37l-10 -13l-22 -32q-37 -54 -107 -54q-51 0 -88 13zM420 641q0 -110 22 -188l420 616q-74 100 -174 100q-135 0 -211 -170q-57 -129 -57 -358zM498 295q24 -59 79 -97t115 -38q121 0 193.5 137t72.5 365 q0 161 -30 266z" />
<glyph unicode="&#xd9;" horiz-adv-x="1356" d="M137 555q0 120 15 358q12 205 12 281q0 64 -21 98h7q24 0 67 15q29 10 72 24l127 53q24 11 55 11q53 0 53 -49q0 -19 -4 -41l-12 -68q-64 -349 -64 -629q0 -209 57.5 -303t184.5 -94q138 0 180 113q12 31 21 73q25 126 31 418q1 104 8 301q2 40 2 74q0 102 -13 151h13 q73 0 141 23l74 25q24 8 55 8q64 0 64 -54q0 -14 -5 -36q-11 -66 -22 -199q-14 -180 -18 -283q-2 -65 -9 -313q-6 -223 -65 -324q-61 -104 -184 -163.5t-277 -59.5q-217 0 -365 101q-100 68 -140 176.5t-40 312.5zM456 1654l17 11q108 67 164 67q36 0 81 -39q65 -55 109 -80 q19 -10 53 -18l-14 -12q-86 -74 -141 -74q-42 0 -146 80q-69 53 -123 65z" />
<glyph unicode="&#xda;" horiz-adv-x="1356" d="M137 555q0 120 15 358q12 205 12 281q0 64 -21 98h7q24 0 67 15q29 10 72 24l127 53q24 11 55 11q53 0 53 -49q0 -19 -4 -41l-12 -68q-64 -349 -64 -629q0 -209 57.5 -303t184.5 -94q138 0 180 113q12 31 21 73q25 126 31 418q1 104 8 301q2 40 2 74q0 102 -13 151h13 q73 0 141 23l74 25q24 8 55 8q64 0 64 -54q0 -14 -5 -36q-11 -66 -22 -199q-14 -180 -18 -283q-2 -65 -9 -313q-6 -223 -65 -324q-61 -104 -184 -163.5t-277 -59.5q-217 0 -365 101q-100 68 -140 176.5t-40 312.5zM555 1585q29 5 56 20q48 29 121 89q37 30 63 30q13 0 33 -6 q11 -4 135 -66l16 -8q-55 -11 -123 -65q-97 -78 -149 -78q-36 0 -55 10q-40 21 -97 74z" />
<glyph unicode="&#xdb;" horiz-adv-x="1356" d="M137 555q0 120 15 358q12 205 12 281q0 64 -21 98h7q24 0 67 15q29 10 72 24l127 53q24 11 55 11q53 0 53 -49q0 -19 -4 -41l-12 -68q-64 -349 -64 -629q0 -209 57.5 -303t184.5 -94q138 0 180 113q12 31 21 73q25 126 31 418q1 104 8 301q2 40 2 74q0 102 -13 151h13 q73 0 141 23l74 25q24 8 55 8q64 0 64 -54q0 -14 -5 -36q-11 -66 -22 -199q-14 -180 -18 -283q-2 -65 -9 -313q-6 -223 -65 -324q-61 -104 -184 -163.5t-277 -59.5q-217 0 -365 101q-100 68 -140 176.5t-40 312.5zM473 1523q71 52 162 166q14 18 25 25q20 10 120 10 q24 0 39 -18l64 -74q59 -69 106 -94q-13 -5 -57 -29q-61 -37 -84 -37q-37 0 -90 62q-28 31 -43 47l-6 8q-6 -6 -6 -8q-21 -25 -52 -56q-49 -49 -77 -49q-15 0 -29 8l-53 31z" />
<glyph unicode="&#xdc;" horiz-adv-x="1356" d="M137 555q0 120 15 358q12 205 12 281q0 64 -21 98h7q24 0 67 15q29 10 72 24l127 53q24 11 55 11q53 0 53 -49q0 -19 -4 -41l-12 -68q-64 -349 -64 -629q0 -209 57.5 -303t184.5 -94q138 0 180 113q12 31 21 73q25 126 31 418q1 104 8 301q2 40 2 74q0 102 -13 151h13 q73 0 141 23l74 25q24 8 55 8q64 0 64 -54q0 -14 -5 -36q-11 -66 -22 -199q-14 -180 -18 -283q-2 -65 -9 -313q-6 -223 -65 -324q-61 -104 -184 -163.5t-277 -59.5q-217 0 -365 101q-100 68 -140 176.5t-40 312.5zM383 1603q0 51 38.5 87t94.5 36q113 0 113 -100 q0 -50 -41 -86.5t-96 -36.5q-109 0 -109 100zM779 1601q0 52 39 88.5t96 36.5q110 0 110 -100q0 -49 -40.5 -86t-94.5 -37q-110 0 -110 98z" />
<glyph unicode="&#xdd;" horiz-adv-x="1333" d="M0 1219q8 4 10 6q45 26 135 90q87 61 140 61q40 0 67.5 -35t83.5 -206q97 -297 221 -467l5 8q17 28 79 139q58 103 174 326q107 204 183 241q57 29 164 29q61 0 135 -8q5 0 18 -2l-8 -8q-60 -79 -143 -215l-168 -275l-138 -244l-159 -290v-17q0 -19 -1 -51.5t-1 -44.5 q0 -90 8 -145q4 -28 4 -41q0 -99 -209 -99q-143 0 -143 64q0 27 8 61q14 59 14 119v-1l-4 161l-2 10l-2 6q-3 5 -100 168q-143 239 -248 502q-50 123 -123 158zM549 1585q29 5 56 20q48 29 121 89q37 30 63 30q13 0 33 -6q11 -4 135 -66l16 -8q-55 -11 -123 -65 q-97 -78 -149 -78q-36 0 -55 10q-40 21 -97 74z" />
<glyph unicode="&#xdf;" horiz-adv-x="1092" d="M27 63q0 21 6 48q4 13 14 57q4 16 14 68q44 216 41 403l-4 324q-2 202 66 315q89 147 276 147q166 0 278.5 -90.5t112.5 -224.5q0 -119 -92 -233q-32 -41 -32 -52q0 -25 59 -63q203 -129 203 -373q0 -179 -119 -295q-124 -121 -301 -121q-69 0 -120.5 42.5t-51.5 99.5 q0 48 47 118l8 13q53 -31 92 -31q68 0 111 53t43 138q0 42 -14 83q-21 58 -45.5 88t-110.5 103q-53 45 -53 76q0 16 20 57q76 152 76 281q0 49 -23 82.5t-55 33.5q-35 0 -55 -36q-28 -51 -39 -254l-19 -336l-24 -527q-8 -174 -88 -174q-43 0 -77 24t-95 79q-49 43 -49 77z " />
<glyph unicode="&#xe0;" horiz-adv-x="969" d="M0 395q0 235 141.5 409.5t331.5 174.5q169 0 242 -150q43 -88 43 -141q0 -28 -27 -57l10 2h29q51 0 51 -33q0 -4 -6 -27q-33 -121 -33 -211q0 -163 101 -163q29 0 59 24q12 -24 12 -55q0 -83 -52.5 -133.5t-141.5 -50.5q-163 0 -201 151q-88 -147 -254 -147 q-140 0 -222.5 110t-82.5 297zM283 401q0 -170 90 -170q44 0 79 63.5t46 166.5q10 97 32 112q-34 3 -34 37l2 8v31q0 92 -60 92q-62 0 -108.5 -102t-46.5 -238zM211 1296l17 11q108 67 164 67q36 0 81 -39q65 -55 109 -80q19 -10 53 -18l-14 -12q-86 -74 -141 -74 q-42 0 -146 80q-69 53 -123 65z" />
<glyph unicode="&#xe1;" horiz-adv-x="969" d="M0 395q0 235 141.5 409.5t331.5 174.5q169 0 242 -150q43 -88 43 -141q0 -28 -27 -57l10 2h29q51 0 51 -33q0 -4 -6 -27q-33 -121 -33 -211q0 -163 101 -163q29 0 59 24q12 -24 12 -55q0 -83 -52.5 -133.5t-141.5 -50.5q-163 0 -201 151q-88 -147 -254 -147 q-140 0 -222.5 110t-82.5 297zM283 401q0 -170 90 -170q44 0 79 63.5t46 166.5q10 97 32 112q-34 3 -34 37l2 8v31q0 92 -60 92q-62 0 -108.5 -102t-46.5 -238zM262 1227q29 5 56 20q48 29 121 89q37 30 63 30q13 0 33 -6q11 -4 135 -66l16 -8q-55 -11 -123 -65 q-97 -78 -149 -78q-36 0 -55 10q-40 21 -97 74z" />
<glyph unicode="&#xe2;" horiz-adv-x="969" d="M0 395q0 235 141.5 409.5t331.5 174.5q169 0 242 -150q43 -88 43 -141q0 -28 -27 -57l10 2h29q51 0 51 -33q0 -4 -6 -27q-33 -121 -33 -211q0 -163 101 -163q29 0 59 24q12 -24 12 -55q0 -83 -52.5 -133.5t-141.5 -50.5q-163 0 -201 151q-88 -147 -254 -147 q-140 0 -222.5 110t-82.5 297zM283 401q0 -170 90 -170q44 0 79 63.5t46 166.5q10 97 32 112q-34 3 -34 37l2 8v31q0 92 -60 92q-62 0 -108.5 -102t-46.5 -238zM192 1165q71 52 162 166q14 18 25 25q20 10 120 10q24 0 39 -18l64 -74q59 -69 106 -94q-13 -5 -57 -29 q-61 -37 -84 -37q-37 0 -90 62q-28 31 -43 47l-6 8q-6 -6 -6 -8q-21 -25 -52 -56q-49 -49 -77 -49q-15 0 -29 8l-53 31z" />
<glyph unicode="&#xe3;" horiz-adv-x="969" d="M0 395q0 235 141.5 409.5t331.5 174.5q169 0 242 -150q43 -88 43 -141q0 -28 -27 -57l10 2h29q51 0 51 -33q0 -4 -6 -27q-33 -121 -33 -211q0 -163 101 -163q29 0 59 24q12 -24 12 -55q0 -83 -52.5 -133.5t-141.5 -50.5q-163 0 -201 151q-88 -147 -254 -147 q-140 0 -222.5 110t-82.5 297zM283 401q0 -170 90 -170q44 0 79 63.5t46 166.5q10 97 32 112q-34 3 -34 37l2 8v31q0 92 -60 92q-62 0 -108.5 -102t-46.5 -238zM239 1237q47 129 191 129q36 0 104.5 -18.5t110.5 -18.5q81 0 119 35v-10q0 -66 -47.5 -108t-120.5 -42 q-56 0 -111 17l-82 24q-34 10 -76 10q-53 0 -88 -18z" />
<glyph unicode="&#xe4;" horiz-adv-x="969" d="M0 395q0 235 141.5 409.5t331.5 174.5q169 0 242 -150q43 -88 43 -141q0 -28 -27 -57l10 2h29q51 0 51 -33q0 -4 -6 -27q-33 -121 -33 -211q0 -163 101 -163q29 0 59 24q12 -24 12 -55q0 -83 -52.5 -133.5t-141.5 -50.5q-163 0 -201 151q-88 -147 -254 -147 q-140 0 -222.5 110t-82.5 297zM283 401q0 -170 90 -170q44 0 79 63.5t46 166.5q10 97 32 112q-34 3 -34 37l2 8v31q0 92 -60 92q-62 0 -108.5 -102t-46.5 -238zM118 1245q0 51 38.5 87t94.5 36q113 0 113 -100q0 -50 -41 -86.5t-96 -36.5q-109 0 -109 100zM514 1243 q0 52 39 88.5t96 36.5q110 0 110 -100q0 -49 -40.5 -86t-94.5 -37q-110 0 -110 98z" />
<glyph unicode="&#xe5;" horiz-adv-x="969" d="M0 395q0 235 141.5 409.5t331.5 174.5q169 0 242 -150q43 -88 43 -141q0 -28 -27 -57l10 2h29q51 0 51 -33q0 -4 -6 -27q-33 -121 -33 -211q0 -163 101 -163q29 0 59 24q12 -24 12 -55q0 -83 -52.5 -133.5t-141.5 -50.5q-163 0 -201 151q-88 -147 -254 -147 q-140 0 -222.5 110t-82.5 297zM283 401q0 -170 90 -170q44 0 79 63.5t46 166.5q10 97 32 112q-34 3 -34 37l2 8v31q0 92 -60 92q-62 0 -108.5 -102t-46.5 -238zM291 1262q0 75 49.5 125.5t122.5 50.5t123.5 -51t50.5 -123q0 -73 -49.5 -122.5t-122.5 -49.5q-75 0 -124.5 48 t-49.5 122zM383 1264q0 -34 23 -57t55 -23q34 0 57 23t23 57q0 32 -23.5 55.5t-54.5 23.5q-33 0 -56.5 -23t-23.5 -56z" />
<glyph unicode="&#xe6;" horiz-adv-x="1321" d="M27 260q0 152 101 244t267 92q59 0 111 -14q6 26 6 55q0 119 -145 119q-50 0 -107 -17q-83 -24 -158 -86l-12 -10q-16 63 -16 105q0 92 91 155.5t224 63.5q168 0 268 -119q92 121 244 121q114 0 186 -74.5t72 -189.5q0 -146 -112 -259q-84 -83 -224 -122 q40 -144 183 -144q50 0 104 21q59 22 107 69l8 9q14 -29 14 -54q0 -106 -100 -182t-238 -76q-60 0 -121 19q-89 27 -164 104q-99 -135 -280 -135q-137 0 -223 85t-86 220zM340 285q0 -88 82 -88q72 0 98 71q-28 69 -28 140v2q-68 -3 -110 -38t-42 -87zM788 582q0 -39 9 -64 q106 58 106 162q0 65 -43 65q-72 0 -72 -163z" />
<glyph unicode="&#xe7;" horiz-adv-x="883" d="M14 465q0 229 126 374.5t327 145.5q130 0 211.5 -62.5t81.5 -160.5q0 -75 -45.5 -123.5t-116.5 -48.5q-33 0 -59 14q2 8 2 19q0 102 -82 102q-60 0 -100 -75t-40 -187q0 -128 47 -200.5t130 -72.5q64 0 138.5 48t110.5 114q41 -24 41 -96q0 -109 -78.5 -187.5 t-199.5 -91.5l-19 -88q11 2 27 2q102 0 102 -98q0 -78 -62 -131t-155 -53q-139 0 -139 98q0 9 6 25q46 -19 105 -19q100 0 100 58q0 49 -94 49q-8 0 -41 -4l41 161l-10 3q-355 70 -355 485z" />
<glyph unicode="&#xe8;" horiz-adv-x="823" d="M0 463q0 223 110.5 376.5t270.5 153.5q116 0 195 -81t79 -199q0 -117 -92 -223t-229 -148q28 -143 147 -143q93 0 193 77l47 37l4 4q16 -30 16 -77q0 -107 -102 -182.5t-248 -75.5q-177 0 -284 131.5t-107 349.5zM289 606q0 -41 14 -67q57 12 92 56.5t35 104.5 q0 64 -49 64q-37 0 -64.5 -47.5t-27.5 -110.5zM147 1296l17 11q108 67 164 67q36 0 81 -39q65 -55 109 -80q19 -10 53 -18l-14 -12q-86 -74 -141 -74q-42 0 -146 80q-69 53 -123 65z" />
<glyph unicode="&#xe9;" horiz-adv-x="823" d="M0 463q0 223 110.5 376.5t270.5 153.5q116 0 195 -81t79 -199q0 -117 -92 -223t-229 -148q28 -143 147 -143q93 0 193 77l47 37l4 4q16 -30 16 -77q0 -107 -102 -182.5t-248 -75.5q-177 0 -284 131.5t-107 349.5zM289 606q0 -41 14 -67q57 12 92 56.5t35 104.5 q0 64 -49 64q-37 0 -64.5 -47.5t-27.5 -110.5zM211 1227q29 5 56 20q48 29 121 89q37 30 63 30q13 0 33 -6q11 -4 135 -66l16 -8q-55 -11 -123 -65q-97 -78 -149 -78q-36 0 -55 10q-40 21 -97 74z" />
<glyph unicode="&#xea;" horiz-adv-x="823" d="M0 463q0 223 110.5 376.5t270.5 153.5q116 0 195 -81t79 -199q0 -117 -92 -223t-229 -148q28 -143 147 -143q93 0 193 77l47 37l4 4q16 -30 16 -77q0 -107 -102 -182.5t-248 -75.5q-177 0 -284 131.5t-107 349.5zM289 606q0 -41 14 -67q57 12 92 56.5t35 104.5 q0 64 -49 64q-37 0 -64.5 -47.5t-27.5 -110.5zM129 1165q71 52 162 166q14 18 25 25q20 10 120 10q24 0 39 -18l64 -74q59 -69 106 -94q-13 -5 -57 -29q-61 -37 -84 -37q-37 0 -90 62q-28 31 -43 47l-6 8q-6 -6 -6 -8q-21 -25 -52 -56q-49 -49 -77 -49q-15 0 -29 8l-53 31z " />
<glyph unicode="&#xeb;" horiz-adv-x="823" d="M0 463q0 223 110.5 376.5t270.5 153.5q116 0 195 -81t79 -199q0 -117 -92 -223t-229 -148q28 -143 147 -143q93 0 193 77l47 37l4 4q16 -30 16 -77q0 -107 -102 -182.5t-248 -75.5q-177 0 -284 131.5t-107 349.5zM289 606q0 -41 14 -67q57 12 92 56.5t35 104.5 q0 64 -49 64q-37 0 -64.5 -47.5t-27.5 -110.5zM90 1245q0 51 38.5 87t94.5 36q113 0 113 -100q0 -50 -41 -86.5t-96 -36.5q-109 0 -109 100zM486 1243q0 52 39 88.5t96 36.5q110 0 110 -100q0 -49 -40.5 -86t-94.5 -37q-110 0 -110 98z" />
<glyph unicode="&#xec;" horiz-adv-x="578" d="M27 797q12 2 20 2q41 9 135 67q76 47 148 47q71 0 71 -73q0 -35 -12 -129q-3 -27 -12 -144q-8 -108 -8 -149q0 -141 28 -268q12 -54 43 -93q-46 -14 -104 -39q-95 -41 -146 -41q-41 0 -75 27q-37 30 -47 63q-7 22 -7 78q0 91 2 129l9 156q2 39 2 68q0 239 -47 299z M-19 1296l17 11q108 67 164 67q36 0 81 -39q65 -55 109 -80q19 -10 53 -18l-14 -12q-86 -74 -141 -74q-42 0 -146 80q-69 53 -123 65z" />
<glyph unicode="&#xed;" horiz-adv-x="578" d="M27 797q12 2 20 2q41 9 135 67q76 47 148 47q71 0 71 -73q0 -35 -12 -129q-3 -27 -12 -144q-8 -108 -8 -149q0 -141 28 -268q12 -54 43 -93q-46 -14 -104 -39q-95 -41 -146 -41q-41 0 -75 27q-37 30 -47 63q-7 22 -7 78q0 91 2 129l9 156q2 39 2 68q0 239 -47 299z M61 1227q29 5 56 20q48 29 121 89q37 30 63 30q13 0 33 -6q11 -4 135 -66l16 -8q-55 -11 -123 -65q-97 -78 -149 -78q-36 0 -55 10q-40 21 -97 74z" />
<glyph unicode="&#xee;" horiz-adv-x="578" d="M27 797q12 2 20 2q41 9 135 67q76 47 148 47q71 0 71 -73q0 -35 -12 -129q-3 -27 -12 -144q-8 -108 -8 -149q0 -141 28 -268q12 -54 43 -93q-46 -14 -104 -39q-95 -41 -146 -41q-41 0 -75 27q-37 30 -47 63q-7 22 -7 78q0 91 2 129l9 156q2 39 2 68q0 239 -47 299z M10 1165q71 52 162 166q14 18 25 25q20 10 120 10q24 0 39 -18l64 -74q59 -69 106 -94q-13 -5 -57 -29q-61 -37 -84 -37q-37 0 -90 62q-28 31 -43 47l-6 8q-6 -6 -6 -8q-21 -25 -52 -56q-49 -49 -77 -49q-15 0 -29 8l-53 31z" />
<glyph unicode="&#xef;" horiz-adv-x="578" d="M27 797q12 2 20 2q41 9 135 67q76 47 148 47q71 0 71 -73q0 -35 -12 -129q-3 -27 -12 -144q-8 -108 -8 -149q0 -141 28 -268q12 -54 43 -93q-46 -14 -104 -39q-95 -41 -146 -41q-41 0 -75 27q-37 30 -47 63q-7 22 -7 78q0 91 2 129l9 156q2 39 2 68q0 239 -47 299z M-47 1245q0 51 38.5 87t94.5 36q113 0 113 -100q0 -50 -41 -86.5t-96 -36.5q-109 0 -109 100zM349 1243q0 52 39 88.5t96 36.5q110 0 110 -100q0 -49 -40.5 -86t-94.5 -37q-110 0 -110 98z" />
<glyph unicode="&#xf1;" horiz-adv-x="1085" d="M41 895h12l148 68q58 26 110 26q90 0 90 -51q0 -16 -10 -49q-37 -119 -43 -268l8 10q49 88 97 147q113 144 239 144q191 0 191 -275v-39q0 -218 8 -319q8 -105 80 -105q43 0 106 64q8 -30 8 -47q0 -91 -69 -156t-164 -65q-99 0 -154 28q-58 31 -82 101t-26 219l-2 112 q0 6 -4 73t-33 67q-35 0 -107 -136q-79 -151 -79 -333q0 -43 10 -58q-18 -18 -49 -33q-87 -40 -142 -40q-60 0 -90 53q-47 84 -47 350q0 74 8 272q2 50 2 140q0 67 -16 100zM243 1237q47 129 191 129q36 0 104.5 -18.5t110.5 -18.5q81 0 119 35v-10q0 -66 -47.5 -108 t-120.5 -42q-56 0 -111 17l-82 24q-34 10 -76 10q-53 0 -88 -18z" />
<glyph unicode="&#xf2;" horiz-adv-x="1040" d="M14 471q0 149 70 260q48 77 92 92l-14 49q34 41 122 74t162 33q199 0 322 -143t123 -375q0 -228 -117.5 -362t-318.5 -134q-192 0 -316.5 143t-124.5 363zM322 539q0 -148 48.5 -247t121.5 -99q118 0 118 194q0 143 -49.5 244.5t-120.5 101.5q-53 0 -85.5 -53.5 t-32.5 -140.5zM186 1296l17 11q108 67 164 67q36 0 81 -39q65 -55 109 -80q19 -10 53 -18l-14 -12q-86 -74 -141 -74q-42 0 -146 80q-69 53 -123 65z" />
<glyph unicode="&#xf3;" horiz-adv-x="1040" d="M14 471q0 149 70 260q48 77 92 92l-14 49q34 41 122 74t162 33q199 0 322 -143t123 -375q0 -228 -117.5 -362t-318.5 -134q-192 0 -316.5 143t-124.5 363zM322 539q0 -148 48.5 -247t121.5 -99q118 0 118 194q0 143 -49.5 244.5t-120.5 101.5q-53 0 -85.5 -53.5 t-32.5 -140.5zM250 1227q29 5 56 20q48 29 121 89q37 30 63 30q13 0 33 -6q11 -4 135 -66l16 -8q-55 -11 -123 -65q-97 -78 -149 -78q-36 0 -55 10q-40 21 -97 74z" />
<glyph unicode="&#xf4;" horiz-adv-x="1040" d="M14 471q0 149 70 260q48 77 92 92l-14 49q34 41 122 74t162 33q199 0 322 -143t123 -375q0 -228 -117.5 -362t-318.5 -134q-192 0 -316.5 143t-124.5 363zM322 539q0 -148 48.5 -247t121.5 -99q118 0 118 194q0 143 -49.5 244.5t-120.5 101.5q-53 0 -85.5 -53.5 t-32.5 -140.5zM211 1165q71 52 162 166q14 18 25 25q20 10 120 10q24 0 39 -18l64 -74q59 -69 106 -94q-13 -5 -57 -29q-61 -37 -84 -37q-37 0 -90 62q-28 31 -43 47l-6 8q-6 -6 -6 -8q-21 -25 -52 -56q-49 -49 -77 -49q-15 0 -29 8l-53 31z" />
<glyph unicode="&#xf5;" horiz-adv-x="1040" d="M14 471q0 149 70 260q48 77 92 92l-14 49q34 41 122 74t162 33q199 0 322 -143t123 -375q0 -228 -117.5 -362t-318.5 -134q-192 0 -316.5 143t-124.5 363zM322 539q0 -148 48.5 -247t121.5 -99q118 0 118 194q0 143 -49.5 244.5t-120.5 101.5q-53 0 -85.5 -53.5 t-32.5 -140.5zM186 1237q47 129 191 129q36 0 104.5 -18.5t110.5 -18.5q81 0 119 35v-10q0 -66 -47.5 -108t-120.5 -42q-56 0 -111 17l-82 24q-34 10 -76 10q-53 0 -88 -18z" />
<glyph unicode="&#xf6;" horiz-adv-x="1040" d="M14 471q0 149 70 260q48 77 92 92l-14 49q34 41 122 74t162 33q199 0 322 -143t123 -375q0 -228 -117.5 -362t-318.5 -134q-192 0 -316.5 143t-124.5 363zM322 539q0 -148 48.5 -247t121.5 -99q118 0 118 194q0 143 -49.5 244.5t-120.5 101.5q-53 0 -85.5 -53.5 t-32.5 -140.5zM147 1245q0 51 38.5 87t94.5 36q113 0 113 -100q0 -50 -41 -86.5t-96 -36.5q-109 0 -109 100zM543 1243q0 52 39 88.5t96 36.5q110 0 110 -100q0 -49 -40.5 -86t-94.5 -37q-110 0 -110 98z" />
<glyph unicode="&#xf8;" horiz-adv-x="989" d="M14 -106q22 22 109 153l29 47q-138 149 -138 377q0 149 70 260q48 77 92 92l-14 49q29 34 100 64q103 43 187 43q139 0 227 -64l14 27q46 86 103 86q4 0 96 -18h4l-4 -4q-31 -37 -51 -66q-13 -18 -37 -57l-17 -27l-14 -22q49 -48 85 -157t36 -212q0 -227 -116.5 -363.5 t-309.5 -136.5q-96 0 -211 49l-14 -20q-5 -8 -23 -37q-52 -86 -115 -86q-19 0 -39 6zM322 535q0 -85 18 -144l188 295q-39 47 -88 47q-54 0 -86 -54t-32 -144zM401 244q36 -49 91 -49q118 0 118 198q0 84 -14 135l-4 9l-2 8z" />
<glyph unicode="&#xf9;" horiz-adv-x="1014" d="M27 813q9 2 18 6q29 11 119 76q96 70 143 70q88 0 88 -99q0 -38 -6 -96q-2 -7 -18.5 -182.5t-16.5 -218.5q0 -121 52 -121q59 0 88 106q41 154 41 310q0 95 -21 139l16 4q17 7 31 14q41 22 123 65q74 40 131 40q64 0 64 -72q0 -27 -27 -164t-27 -287q0 -194 70 -194 q24 0 51 24q15 -33 15 -71q0 -72 -53.5 -119t-133.5 -47q-57 0 -115.5 33.5t-85.5 81.5q-117 -134 -272 -134q-117 0 -188.5 74t-71.5 195q0 57 8 141q14 147 14 236q0 77 -2 108q-4 63 -34 82zM262 1296l17 11q108 67 164 67q36 0 81 -39q65 -55 109 -80q19 -10 53 -18 l-14 -12q-86 -74 -141 -74q-42 0 -146 80q-69 53 -123 65z" />
<glyph unicode="&#xfa;" horiz-adv-x="1014" d="M27 813q9 2 18 6q29 11 119 76q96 70 143 70q88 0 88 -99q0 -38 -6 -96q-2 -7 -18.5 -182.5t-16.5 -218.5q0 -121 52 -121q59 0 88 106q41 154 41 310q0 95 -21 139l16 4q17 7 31 14q41 22 123 65q74 40 131 40q64 0 64 -72q0 -27 -27 -164t-27 -287q0 -194 70 -194 q24 0 51 24q15 -33 15 -71q0 -72 -53.5 -119t-133.5 -47q-57 0 -115.5 33.5t-85.5 81.5q-117 -134 -272 -134q-117 0 -188.5 74t-71.5 195q0 57 8 141q14 147 14 236q0 77 -2 108q-4 63 -34 82zM313 1227q29 5 56 20q48 29 121 89q37 30 63 30q13 0 33 -6q11 -4 135 -66 l16 -8q-55 -11 -123 -65q-97 -78 -149 -78q-36 0 -55 10q-40 21 -97 74z" />
<glyph unicode="&#xfb;" horiz-adv-x="1014" d="M27 813q9 2 18 6q29 11 119 76q96 70 143 70q88 0 88 -99q0 -38 -6 -96q-2 -7 -18.5 -182.5t-16.5 -218.5q0 -121 52 -121q59 0 88 106q41 154 41 310q0 95 -21 139l16 4q17 7 31 14q41 22 123 65q74 40 131 40q64 0 64 -72q0 -27 -27 -164t-27 -287q0 -194 70 -194 q24 0 51 24q15 -33 15 -71q0 -72 -53.5 -119t-133.5 -47q-57 0 -115.5 33.5t-85.5 81.5q-117 -134 -272 -134q-117 0 -188.5 74t-71.5 195q0 57 8 141q14 147 14 236q0 77 -2 108q-4 63 -34 82zM233 1165q71 52 162 166q14 18 25 25q20 10 120 10q24 0 39 -18l64 -74 q59 -69 106 -94q-13 -5 -57 -29q-61 -37 -84 -37q-37 0 -90 62q-28 31 -43 47l-6 8q-6 -6 -6 -8q-21 -25 -52 -56q-49 -49 -77 -49q-15 0 -29 8l-53 31z" />
<glyph unicode="&#xfc;" horiz-adv-x="1014" d="M27 813q9 2 18 6q29 11 119 76q96 70 143 70q88 0 88 -99q0 -38 -6 -96q-2 -7 -18.5 -182.5t-16.5 -218.5q0 -121 52 -121q59 0 88 106q41 154 41 310q0 95 -21 139l16 4q17 7 31 14q41 22 123 65q74 40 131 40q64 0 64 -72q0 -27 -27 -164t-27 -287q0 -194 70 -194 q24 0 51 24q15 -33 15 -71q0 -72 -53.5 -119t-133.5 -47q-57 0 -115.5 33.5t-85.5 81.5q-117 -134 -272 -134q-117 0 -188.5 74t-71.5 195q0 57 8 141q14 147 14 236q0 77 -2 108q-4 63 -34 82zM192 1245q0 51 38.5 87t94.5 36q113 0 113 -100q0 -50 -41 -86.5t-96 -36.5 q-109 0 -109 100zM588 1243q0 52 39 88.5t96 36.5q110 0 110 -100q0 -49 -40.5 -86t-94.5 -37q-110 0 -110 98z" />
<glyph unicode="&#xfd;" horiz-adv-x="1026" d="M173 1185q29 5 56 20q48 29 121 89q37 30 63 30q13 0 33 -6q11 -4 135 -66l16 -8q-55 -11 -123 -65q-97 -78 -149 -78q-36 0 -55 10q-40 21 -97 74zM14 811l15 10l110 76q90 61 156 61q82 0 82 -79q0 -36 -27 -177l-22 -118q-17 -89 -17 -181q0 -135 72 -135 q60 0 103.5 90t45.5 220l3 104v14q0 104 -29 144q6 2 14 4q35 10 131 57q88 43 142 43q71 0 71 -65q0 -16 -10 -101q-20 -169 -20 -284q0 6 2 -72q2 -88 18 -307q8 -112 8 -174q0 -410 -385 -410q-236 0 -246 164q-2 44 -10 63q-2 2 -4 6l8 5q61 43 115 43q37 0 82 -13 q52 -14 72 -14q63 0 63 115q0 7 -2 44q-1 42 -2 76l-2 130q-108 -158 -264 -158q-114 0 -184 93.5t-70 246.5q0 52 16 270q4 55 4 111q0 54 -6.5 70.5t-32.5 27.5z" />
<glyph unicode="&#xff;" horiz-adv-x="1026" d="M14 811l15 10l110 76q90 61 156 61q82 0 82 -79q0 -36 -27 -177l-22 -118q-17 -89 -17 -181q0 -135 72 -135q60 0 103.5 90t45.5 220l3 104v14q0 104 -29 144q6 2 14 4q35 10 131 57q88 43 142 43q71 0 71 -65q0 -16 -10 -101q-20 -169 -20 -284q0 6 2 -72q2 -88 18 -307 q8 -112 8 -174q0 -410 -385 -410q-236 0 -246 164q-2 44 -10 63q-2 2 -4 6l8 5q61 43 115 43q37 0 82 -13q52 -14 72 -14q63 0 63 115q0 7 -2 44q-1 42 -2 76l-2 130q-108 -158 -264 -158q-114 0 -184 93.5t-70 246.5q0 52 16 270q4 55 4 111q0 54 -6.5 70.5t-32.5 27.5z M153 1245q0 51 38.5 87t94.5 36q113 0 113 -100q0 -50 -41 -86.5t-96 -36.5q-109 0 -109 100zM549 1243q0 52 39 88.5t96 36.5q110 0 110 -100q0 -49 -40.5 -86t-94.5 -37q-110 0 -110 98z" />
<glyph unicode="&#x131;" horiz-adv-x="578" d="M27 797q12 2 20 2q41 9 135 67q76 47 148 47q71 0 71 -73q0 -35 -12 -129q-3 -27 -12 -144q-8 -108 -8 -149q0 -141 28 -268q12 -54 43 -93q-46 -14 -104 -39q-95 -41 -146 -41q-41 0 -75 27q-37 30 -47 63q-7 22 -7 78q0 91 2 129l9 156q2 39 2 68q0 239 -47 299z" />
<glyph unicode="&#x152;" horiz-adv-x="1913" d="M109 692q0 315 187 503.5t499 188.5q98 0 299 -22q54 -6 75 -6q6 0 115 8l164 12l194 19q123 11 152 19q34 8 70 38q12 -29 12 -59q0 -68 -26 -124.5t-90.5 -79t-219.5 -30.5q-144 -7 -293 -20h-14v-13l-16 -147l-9 -172h15q279 0 407 88q31 -28 31 -94q0 -137 -105 -174 q-43 -16 -118 -27q-113 -16 -221 -16h-15v-15q0 -17 -2 -53.5t-2 -54.5q0 -149 39.5 -189.5t183.5 -40.5q266 0 381 103q47 -76 47 -139q0 -211 -450 -211q-145 0 -221 22q-90 27 -111 27q-24 0 -88 -23q-111 -39 -231 -39q-287 0 -463 199t-176 522zM487 723 q0 -207 77 -345t192 -138q49 0 84 36q17 19 26 43q17 61 17 287v107q0 172 2 211l12 200q-57 15 -109 15q-142 0 -221.5 -109.5t-79.5 -306.5z" />
<glyph unicode="&#x153;" horiz-adv-x="1434" d="M14 469q0 133 45.5 232t116.5 122l-14 49q37 45 118 76t160 31q82 0 158 -29.5t113 -77.5q133 107 266 107q126 0 207.5 -77t81.5 -197q0 -122 -90.5 -226.5t-233.5 -150.5q29 -144 150 -144q51 0 101 24.5t91 55.5q9 8 45 35l6 4q17 -30 17 -78q0 -107 -103.5 -182.5 t-251.5 -75.5q-152 0 -249 113q-93 -115 -277 -115q-107 0 -186.5 35t-145.5 111q-125 144 -125 358zM322 539q0 -148 48.5 -247t121.5 -99q118 0 118 194q0 143 -49.5 244.5t-120.5 101.5q-53 0 -85.5 -53.5t-32.5 -140.5zM899 590q0 -41 12 -66q59 13 94 57.5t35 104.5 q0 66 -49 66q-38 0 -65 -48.5t-27 -113.5z" />
<glyph unicode="&#x178;" horiz-adv-x="1333" d="M0 1219q8 4 10 6q45 26 135 90q87 61 140 61q40 0 67.5 -35t83.5 -206q97 -297 221 -467l5 8q17 28 79 139q58 103 174 326q107 204 183 241q57 29 164 29q61 0 135 -8q5 0 18 -2l-8 -8q-60 -79 -143 -215l-168 -275l-138 -244l-159 -290v-17q0 -19 -1 -51.5t-1 -44.5 q0 -90 8 -145q4 -28 4 -41q0 -99 -209 -99q-143 0 -143 64q0 27 8 61q14 59 14 119v-1l-4 161l-2 10l-2 6q-3 5 -100 168q-143 239 -248 502q-50 123 -123 158zM387 1603q0 51 38.5 87t94.5 36q113 0 113 -100q0 -50 -41 -86.5t-96 -36.5q-109 0 -109 100zM783 1601 q0 52 39 88.5t96 36.5q110 0 110 -100q0 -49 -40.5 -86t-94.5 -37q-110 0 -110 98z" />
<glyph unicode="&#x2c6;" horiz-adv-x="627" d="M55 1165q71 52 162 166q14 18 25 25q20 10 120 10q24 0 39 -18l64 -74q59 -69 106 -94q-13 -5 -57 -29q-61 -37 -84 -37q-37 0 -90 62q-28 31 -43 47l-6 8q-6 -6 -6 -8q-21 -25 -52 -56q-49 -49 -77 -49q-15 0 -29 8l-53 31z" />
<glyph unicode="&#x2da;" horiz-adv-x="457" d="M55 1262q0 75 49.5 125.5t122.5 50.5t123.5 -51t50.5 -123q0 -73 -49.5 -122.5t-122.5 -49.5q-75 0 -124.5 48t-49.5 122zM147 1264q0 -34 23 -57t55 -23q34 0 57 23t23 57q0 32 -23.5 55.5t-54.5 23.5q-33 0 -56.5 -23t-23.5 -56z" />
<glyph unicode="&#x2dc;" horiz-adv-x="635" d="M55 1237q47 129 191 129q36 0 104.5 -18.5t110.5 -18.5q81 0 119 35v-10q0 -66 -47.5 -108t-120.5 -42q-56 0 -111 17l-82 24q-34 10 -76 10q-53 0 -88 -18z" />
<glyph unicode="&#x2000;" horiz-adv-x="898" />
<glyph unicode="&#x2001;" horiz-adv-x="1796" />
<glyph unicode="&#x2002;" horiz-adv-x="898" />
<glyph unicode="&#x2003;" horiz-adv-x="1796" />
<glyph unicode="&#x2004;" horiz-adv-x="598" />
<glyph unicode="&#x2005;" horiz-adv-x="449" />
<glyph unicode="&#x2006;" horiz-adv-x="299" />
<glyph unicode="&#x2007;" horiz-adv-x="299" />
<glyph unicode="&#x2008;" horiz-adv-x="224" />
<glyph unicode="&#x2009;" horiz-adv-x="359" />
<glyph unicode="&#x200a;" horiz-adv-x="99" />
<glyph unicode="&#x2010;" horiz-adv-x="731" d="M55 436q9 74 39 131q23 43 69 55q26 7 93 7h240q68 0 110 6q22 3 72 18q-10 -22 -19 -71q-12 -76 -47 -103q-28 -22 -147 -22h-258q-57 0 -107 -8q-20 -4 -45 -13z" />
<glyph unicode="&#x2011;" horiz-adv-x="731" d="M55 436q9 74 39 131q23 43 69 55q26 7 93 7h240q68 0 110 6q22 3 72 18q-10 -22 -19 -71q-12 -76 -47 -103q-28 -22 -147 -22h-258q-57 0 -107 -8q-20 -4 -45 -13z" />
<glyph unicode="&#x2012;" horiz-adv-x="731" d="M55 436q9 74 39 131q23 43 69 55q26 7 93 7h240q68 0 110 6q22 3 72 18q-10 -22 -19 -71q-12 -76 -47 -103q-28 -22 -147 -22h-258q-57 0 -107 -8q-20 -4 -45 -13z" />
<glyph unicode="&#x2013;" horiz-adv-x="1352" d="M55 436q9 74 39 131q23 43 69 55q26 7 93 7h860q68 0 109 6q21 3 71 18q-5 -14 -18 -71q-13 -78 -43.5 -101.5t-151.5 -23.5h-876q-57 0 -107 -8q-20 -4 -45 -13z" />
<glyph unicode="&#x2014;" horiz-adv-x="2595" d="M55 436q9 74 39 131q23 43 69 55q26 7 93 7h2101q69 0 111 6q21 3 72 18q-9 -18 -19 -71q-15 -79 -44.5 -102t-149.5 -23h-2120q-57 0 -107 -8q-20 -4 -45 -13z" />
<glyph unicode="&#x2018;" horiz-adv-x="492" d="M55 1399q21 -8 58 -8h49q46 0 71 -9q35 -11 68 -79l41 -86q25 -53 45 -97q14 -33 51 -92q-12 4 -20 4q-1 0 -21 -1t-39 -1h-6q-49 0 -84 29q-19 19 -32 39q-53 76 -103 164z" />
<glyph unicode="&#x2019;" horiz-adv-x="492" d="M55 1028q26 33 51 92q32 73 44 97l40 86q24 48 37 61q29 27 103 27h49q39 0 59 8l-8 -15l-70 -122q-49 -87 -102 -164q-47 -68 -117 -68h-8q-18 0 -37.5 1t-21.5 1q-8 0 -19 -4z" />
<glyph unicode="&#x201a;" horiz-adv-x="492" d="M55 -145q14 17 51 90q28 64 44 96l40 88q19 40 37 61q30 27 103 27h8l35 -2h6q32 0 59 8l-8 -12l-70 -123q-55 -98 -102 -165.5t-117 -67.5l-8 2q-18 0 -37.5 1t-21.5 1q-8 0 -19 -4z" />
<glyph unicode="&#x201c;" horiz-adv-x="862" d="M55 1399q21 -8 58 -8h49q46 0 71 -9q35 -11 68 -79l41 -86q29 -61 44 -95.5t52 -93.5q-12 4 -20 4q-1 0 -21 -1t-39 -1h-6q-49 0 -84 29q-19 19 -32 39q-53 76 -103 164zM424 1399q22 -8 59 -8h49q46 0 72 -9q35 -11 68 -79l41 -86q11 -27 43 -97q29 -64 53 -92 q-12 4 -21 4q-1 0 -21 -1t-38 -1h-8q-49 0 -82 29q-15 13 -33 39q-43 62 -102 164z" />
<glyph unicode="&#x201d;" horiz-adv-x="862" d="M55 1028q26 33 51 92q32 73 44 97l40 86q24 48 37 61q29 27 103 27h49q39 0 59 8l-8 -15l-70 -122q-49 -87 -102 -164q-47 -68 -117 -68h-8q-18 0 -37.5 1t-21.5 1q-8 0 -19 -4zM424 1028q24 29 53 92q14 33 43 97l41 86q22 46 37 61q27 27 102 27h50q36 0 59 8l-8 -15 l-72 -122q-58 -101 -102 -164q-47 -68 -115 -68h-8q-18 0 -38 1t-22 1q-8 0 -20 -4z" />
<glyph unicode="&#x201e;" horiz-adv-x="862" d="M55 -145q14 17 51 90q28 64 44 96l40 88q19 40 37 61q30 27 103 27h8l35 -2h6q32 0 59 8l-8 -12l-70 -123q-55 -98 -102 -165.5t-117 -67.5l-8 2q-18 0 -37.5 1t-21.5 1q-8 0 -19 -4zM424 -145q26 31 53 90q15 32 43 96l41 88q21 44 37 61q25 27 102 27h9l34 -2h7 q29 0 59 8l-8 -12l-72 -123q-66 -113 -102 -166q-47 -67 -115 -67l-8 2q-18 0 -38 1t-22 1q-8 0 -20 -4z" />
<glyph unicode="&#x2022;" horiz-adv-x="739" d="M123 680q0 104 71 177t173 73q104 0 176.5 -72.5t72.5 -175.5q0 -102 -72.5 -174t-174.5 -72t-174 71.5t-72 172.5z" />
<glyph unicode="&#x2026;" horiz-adv-x="1702" d="M55 111q0 66 70 113.5t168 47.5q153 0 153 -122q0 -74 -64.5 -120t-168.5 -46q-72 0 -115 34.5t-43 92.5zM655 111q0 66 70.5 113.5t167.5 47.5q154 0 154 -122q0 -74 -65 -120t-169 -46q-71 0 -114.5 35t-43.5 92zM1255 111q0 66 70.5 113.5t167.5 47.5q154 0 154 -122 q0 -74 -65 -120t-169 -46q-71 0 -114.5 35t-43.5 92z" />
<glyph unicode="&#x202f;" horiz-adv-x="359" />
<glyph unicode="&#x2039;" horiz-adv-x="569" d="M55 506q0 32 39 67q154 141 217 265q88 -82 88 -148q0 -39 -26 -67l-49 -54q-48 -51 -48 -67q0 -12 23 -43q82 -115 135 -144l-8 -4q-10 -10 -57 -51q-21 -18 -60 -51q-20 -16 -41 -16q-31 0 -92 88q-121 175 -121 225z" />
<glyph unicode="&#x203a;" horiz-adv-x="446" d="M14 315q36 21 111 111q45 54 45 76q0 16 -47 67q-22 24 -49 53t-27 68q0 64 90 148q63 -123 215 -265q41 -38 41 -67q0 -42 -71 -150q-67 -99 -103 -145q-18 -18 -41 -18q-8 0 -24 4q-11 5 -76 63l-58 51z" />
<glyph unicode="&#x2044;" horiz-adv-x="1251" d="M55 6q6 6 13 14q31 42 65 95q6 11 57 86l768 1106q13 16 33 43q27 32 72 32q23 0 65 -10q52 -12 56 -12q11 -2 12 -2l-6 -10l-55 -78l-60 -88l-700 -1030l-45 -68q-14 -21 -41 -53q-41 -49 -90 -49q-36 0 -66 8q-51 14 -78 16z" />
<glyph unicode="&#x205f;" horiz-adv-x="449" />
<glyph unicode="&#x20ac;" horiz-adv-x="1241" d="M55 618v7q43 -14 138 -23l-3 25q0 5 1.5 15.5t1.5 14.5v11q-73 12 -96 32t-31 76l-7 43l-4 33v6l8 -4q39 -10 113 -18q11 -1 37 -5q57 269 223 418.5t406 149.5q170 0 274.5 -59.5t104.5 -157.5q0 -111 -154 -193q-126 150 -256 150q-106 0 -178 -85t-90 -231h24 q198 0 291 35v-6l-4 -33q-6 -49 -6 -43q-9 -53 -25 -69q-47 -50 -262 -50h-22q1 -13 8 -63q182 11 244 31v-7l-5 -30q-2 -19 -6 -43q-7 -65 -43 -86t-151 -29q97 -244 305 -244q90 0 196.5 38.5t180.5 97.5q-6 -151 -150 -260t-336 -109q-204 0 -362 133t-209 348 q-84 11 -110.5 31t-34.5 80z" />
<glyph unicode="&#x2122;" horiz-adv-x="1358" d="M55 1274q0 19 23 35l45 30q6 4 18 17q19 -25 76 -25h29v8q0 27 104 27q24 0 31 -9q4 -6 4 -22q15 0 43 6q65 15 104 15q40 0 60 -29l16 -24l2 -3l-2 -2l-35 -24q-34 -25 -124 -25h-64v-6l-6 -117q-2 -39 -2 -94q0 -193 35 -237q-23 -12 -54 -37q-10 -9 -26.5 -24 t-36.5 -15q-55 0 -55 166q0 48 2 88q4 79 4 160v118h-4l-39 -4q-20 -2 -53 -2q-95 0 -95 29zM688 834q0 124 21 323q4 40 4 72q0 54 -21 71q16 6 74 37q53 29 72 29q20 0 34 -23q32 -50 89 -196q16 -41 36 -92l2 -6q30 90 91 206q52 103 96 103q24 0 63 -10q16 -5 45 -11 q-10 -12 -10 -45q0 -56 4 -100q2 -19 8 -143q7 -120 7 -218q0 -112 -39 -112q-13 0 -25 6q-35 9 -65 25q-21 10 -21 32v19q4 25 6 59q4 74 4 94q0 -16 -2 45.5t-2 79.5q0 39 -2 56q-14 -21 -33 -64q-8 -20 -24 -59q-12 -31 -35 -121q-3 -17 -10 -37q-4 -6 -33 -23l-25 -14 l-51 -20v6q0 51 -65 203q-33 75 -60 129l-2 -11l-2 -59l-6 -84v-12q0 2 2 -37q4 -75 14 -121q0 -4 1 -12t1 -11q0 -23 -23 -34t-38 -15q-37 -10 -47 -10q-33 0 -33 105z" />
<glyph unicode="&#xe000;" horiz-adv-x="945" d="M0 945h945v-945h-945v945z" />
<glyph unicode="&#xfb01;" horiz-adv-x="1288" d="M725 1171v7q0 106 151 180q72 35 135 35q140 0 140 -111q0 -74 -97 -141q-102 -72 -206 -72q-54 0 -88.5 29t-34.5 73zM735 797q12 2 20 2q41 9 136 67q75 47 147 47t72 -73q0 -35 -13 -129q-3 -27 -12 -144q-8 -108 -8 -149q0 -141 29 -268q12 -54 43 -93 q-47 -14 -105 -39q-95 -41 -145 -41q-42 0 -76 27q-37 30 -47 63q-6 22 -6 78q0 91 2 129l8 156q2 39 2 68q0 239 -47 299zM-219 -293q14 6 57 39q46 43 82 43q26 0 74 -31q35 -22 57 -22q70 0 70 123v110q0 169 -4 287l-13 350q0 30 -2 69t-2 48v12l-8 -2q-10 0 -40.5 -1 t-43.5 -1q-129 0 -129 55q0 38 58 80q38 28 53 49q20 -22 67 -22q19 0 43 2q-4 25 -4 74q0 108 13 184q21 132 123.5 213.5t248.5 81.5q112 0 198.5 -73t86.5 -167q0 -64 -53.5 -106.5t-134.5 -42.5h-33q10 18 10 41q0 45 -23 76.5t-57 31.5q-45 0 -58 -58q-5 -23 -5 -93 v-37l2 -129h8l45 2h16q175 0 228 -127l-15 -2q-53 -8 -141 -15.5t-127 -13.5l-14 -2v-6q0 -10 2 -109q0 -69 2 -288l4 -271q0 -11 1 -49q1 -30 1 -49q0 -170 -33 -262q-64 -180 -293 -180q-45 0 -94 10q-82 17 -174 125q-15 16 -49 53z" />
<glyph unicode="&#xfb02;" horiz-adv-x="1280" d="M739 303q0 187 22 383l27 232q6 53 6 153q0 141 -22 203q8 2 18 4q19 11 94 59q45 29 115 52q32 10 55 10q88 0 88 -109q0 -57 -20 -170q-38 -211 -57 -434q-17 -191 -17 -278q0 -183 121 -183q48 0 78 27q18 -25 18 -64q0 -96 -67 -152t-183 -56q-126 0 -201 76.5 t-75 246.5zM-219 -293q14 6 57 39q46 43 82 43q26 0 74 -31q35 -22 57 -22q70 0 70 123v110q0 169 -4 287l-13 350q0 30 -2 69t-2 48v12l-8 -2q-10 0 -40.5 -1t-43.5 -1q-129 0 -129 55q0 38 58 80q38 28 53 49q20 -22 67 -22q19 0 43 2q-4 25 -4 74q0 108 13 184 q21 132 123.5 213.5t248.5 81.5q112 0 198.5 -73t86.5 -167q0 -64 -53.5 -106.5t-134.5 -42.5h-33q10 18 10 41q0 45 -23 76.5t-57 31.5q-45 0 -58 -58q-5 -23 -5 -93v-37l2 -129h8l45 2h16q175 0 228 -127l-15 -2q-53 -8 -141 -15.5t-127 -13.5l-14 -2v-6q0 -10 2 -109 q0 -69 2 -288l4 -271q0 -11 1 -49q1 -30 1 -49q0 -170 -33 -262q-64 -180 -293 -180q-45 0 -94 10q-82 17 -174 125q-15 16 -49 53z" />
<glyph unicode="&#xfb03;" horiz-adv-x="1986" d="M1423 1171v7q0 106 151 180q72 35 135 35q140 0 140 -111q0 -74 -97 -141q-102 -72 -206 -72q-54 0 -88.5 29t-34.5 73zM1433 797q12 2 20 2q41 9 136 67q75 47 147 47t72 -73q0 -35 -13 -129q-3 -27 -12 -144q-8 -108 -8 -149q0 -141 29 -268q12 -54 43 -93 q-47 -14 -105 -39q-95 -41 -145 -41q-42 0 -76 27q-37 30 -47 63q-6 22 -6 78q0 91 2 129l8 156q2 39 2 68q0 239 -47 299zM479 -293q14 6 57 39q46 43 82 43q26 0 74 -31q35 -22 57 -22q70 0 70 123v110q0 169 -4 287l-13 350q0 30 -2 69t-2 48v12l-8 -2q-10 0 -40.5 -1 t-43.5 -1q-129 0 -129 55q0 38 58 80q38 28 53 49q20 -22 67 -22q19 0 43 2q-4 25 -4 74q0 108 13 184q21 132 123.5 213.5t248.5 81.5q112 0 198.5 -73t86.5 -167q0 -64 -53.5 -106.5t-134.5 -42.5h-33q10 18 10 41q0 45 -23 76.5t-57 31.5q-45 0 -58 -58q-5 -23 -5 -93 v-37l2 -129h8l45 2h16q175 0 228 -127l-15 -2q-53 -8 -141 -15.5t-127 -13.5l-14 -2v-6q0 -10 2 -109q0 -69 2 -288l4 -271q0 -11 1 -49q1 -30 1 -49q0 -170 -33 -262q-64 -180 -293 -180q-45 0 -94 10q-82 17 -174 125q-15 16 -49 53zM-219 -293q14 6 57 39q46 43 82 43 q26 0 74 -31q35 -22 57 -22q70 0 70 123v110q0 169 -4 287l-13 350q0 30 -2 69t-2 48v12l-8 -2q-10 0 -40.5 -1t-43.5 -1q-129 0 -129 55q0 38 58 80q38 28 53 49q20 -22 67 -22q19 0 43 2q-4 25 -4 74q0 108 13 184q21 132 123.5 213.5t248.5 81.5q112 0 198.5 -73 t86.5 -167q0 -64 -53.5 -106.5t-134.5 -42.5h-33q10 18 10 41q0 45 -23 76.5t-57 31.5q-45 0 -58 -58q-5 -23 -5 -93v-37l2 -129h8l45 2h16q175 0 228 -127l-15 -2q-53 -8 -141 -15.5t-127 -13.5l-14 -2v-6q0 -10 2 -109q0 -69 2 -288l4 -271q0 -11 1 -49q1 -30 1 -49 q0 -170 -33 -262q-64 -180 -293 -180q-45 0 -94 10q-82 17 -174 125q-15 16 -49 53z" />
<glyph unicode="&#xfb04;" horiz-adv-x="1978" d="M1437 303q0 187 22 383l27 232q6 53 6 153q0 141 -22 203q8 2 18 4q19 11 94 59q45 29 115 52q32 10 55 10q88 0 88 -109q0 -57 -20 -170q-38 -211 -57 -434q-17 -191 -17 -278q0 -183 121 -183q48 0 78 27q18 -25 18 -64q0 -96 -67 -152t-183 -56q-126 0 -201 76.5 t-75 246.5zM479 -293q14 6 57 39q46 43 82 43q26 0 74 -31q35 -22 57 -22q70 0 70 123v110q0 169 -4 287l-13 350q0 30 -2 69t-2 48v12l-8 -2q-10 0 -40.5 -1t-43.5 -1q-129 0 -129 55q0 38 58 80q38 28 53 49q20 -22 67 -22q19 0 43 2q-4 25 -4 74q0 108 13 184 q21 132 123.5 213.5t248.5 81.5q112 0 198.5 -73t86.5 -167q0 -64 -53.5 -106.5t-134.5 -42.5h-33q10 18 10 41q0 45 -23 76.5t-57 31.5q-45 0 -58 -58q-5 -23 -5 -93v-37l2 -129h8l45 2h16q175 0 228 -127l-15 -2q-53 -8 -141 -15.5t-127 -13.5l-14 -2v-6q0 -10 2 -109 q0 -69 2 -288l4 -271q0 -11 1 -49q1 -30 1 -49q0 -170 -33 -262q-64 -180 -293 -180q-45 0 -94 10q-82 17 -174 125q-15 16 -49 53zM-219 -293q14 6 57 39q46 43 82 43q26 0 74 -31q35 -22 57 -22q70 0 70 123v110q0 169 -4 287l-13 350q0 30 -2 69t-2 48v12l-8 -2 q-10 0 -40.5 -1t-43.5 -1q-129 0 -129 55q0 38 58 80q38 28 53 49q20 -22 67 -22q19 0 43 2q-4 25 -4 74q0 108 13 184q21 132 123.5 213.5t248.5 81.5q112 0 198.5 -73t86.5 -167q0 -64 -53.5 -106.5t-134.5 -42.5h-33q10 18 10 41q0 45 -23 76.5t-57 31.5q-45 0 -58 -58 q-5 -23 -5 -93v-37l2 -129h8l45 2h16q175 0 228 -127l-15 -2q-53 -8 -141 -15.5t-127 -13.5l-14 -2v-6q0 -10 2 -109q0 -69 2 -288l4 -271q0 -11 1 -49q1 -30 1 -49q0 -170 -33 -262q-64 -180 -293 -180q-45 0 -94 10q-82 17 -174 125q-15 16 -49 53z" />
</font>
</defs>
</svg>
